<svg xmlns="http://www.w3.org/2000/svg" xmlns:xlink="http://www.w3.org/1999/xlink" width="816" zoomAndPan="magnify" viewBox="0 0 612 197.999996" height="264" preserveAspectRatio="xMidYMid meet" version="1.0"><defs><g/><clipPath id="5218ebc121"><path d="M 42.441406 0 L 414.441406 0 L 414.441406 198 L 42.441406 198 Z M 42.441406 0 " clip-rule="nonzero"/></clipPath><clipPath id="673e2b04a4"><path d="M 391.4375 0.0078125 L 569.902344 0.0078125 L 569.902344 197.902344 L 391.4375 197.902344 Z M 391.4375 0.0078125 " clip-rule="nonzero"/></clipPath><clipPath id="5411c554e5"><path d="M 391.394531 0.0078125 L 428.816406 0.0078125 L 428.816406 197.902344 L 391.394531 197.902344 Z M 391.394531 0.0078125 " clip-rule="nonzero"/></clipPath></defs><g clip-path="url(#5218ebc121)"><path fill="#f9f2ed" d="M 64.1875 0 L 392.691406 0 C 404.703125 0 414.441406 9.738281 414.441406 21.753906 L 414.441406 176.246094 C 414.441406 188.261719 404.703125 198 392.691406 198 L 64.1875 198 C 52.175781 198 42.441406 188.261719 42.441406 176.246094 L 42.441406 21.753906 C 42.441406 9.738281 52.175781 0 64.1875 0 " fill-opacity="1" fill-rule="nonzero"/></g><g clip-path="url(#673e2b04a4)"><path fill="#d291bc" d="M 413.230469 0.0078125 L 548.109375 0.0078125 C 560.144531 0.0078125 569.902344 9.742188 569.902344 21.75 L 569.902344 176.164062 C 569.902344 188.167969 560.144531 197.902344 548.109375 197.902344 L 413.230469 197.902344 C 401.195312 197.902344 391.4375 188.167969 391.4375 176.164062 L 391.4375 21.75 C 391.4375 9.742188 401.195312 0.0078125 413.230469 0.0078125 " fill-opacity="1" fill-rule="nonzero"/></g><g clip-path="url(#5411c554e5)"><path fill="#d291bc" d="M 391.394531 0.015625 L 428.816406 0.015625 L 428.816406 197.894531 L 391.394531 197.894531 L 391.394531 0.015625 " fill-opacity="1" fill-rule="nonzero"/></g><path stroke-linecap="butt" transform="matrix(0.750902, 0, 0, 0.685714, 138.435422, 125.545041)" fill="none" stroke-linejoin="miter" d="M -0.00243529 0.00267454 L 207.763179 0.00267454 " stroke="#000000" stroke-width="1" stroke-opacity="1" stroke-miterlimit="4"/><path fill="#000000" d="M 390.316406 197.980469 L 390.335938 195.730469 L 392.683594 195.75 L 392.664062 198 M 390.355469 193.480469 L 390.375 191.230469 L 392.722656 191.25 L 392.703125 193.5 M 390.394531 188.980469 L 390.414062 186.730469 L 392.761719 186.75 L 392.742188 189 M 390.429688 184.480469 L 390.449219 182.230469 L 392.796875 182.25 L 392.777344 184.5 M 390.46875 179.980469 L 390.488281 177.730469 L 392.835938 177.75 L 392.816406 180 M 390.507812 175.480469 L 390.527344 173.230469 L 392.875 173.25 L 392.855469 175.5 M 390.542969 170.980469 L 390.5625 168.730469 L 392.910156 168.75 L 392.890625 171 M 390.582031 166.480469 L 390.601562 164.230469 L 392.949219 164.25 L 392.929688 166.5 M 390.621094 161.980469 L 390.640625 159.730469 L 392.988281 159.75 L 392.96875 162 M 390.65625 157.480469 L 390.675781 155.230469 L 393.023438 155.25 L 393.003906 157.5 M 390.695312 152.980469 L 390.714844 150.730469 L 393.0625 150.75 L 393.042969 153 M 390.734375 148.480469 L 390.753906 146.230469 L 393.101562 146.25 L 393.082031 148.5 M 390.769531 143.980469 L 390.789062 141.730469 L 393.136719 141.75 L 393.117188 144 M 390.808594 139.480469 L 390.828125 137.230469 L 393.175781 137.25 L 393.15625 139.5 M 390.847656 134.980469 L 390.867188 132.730469 L 393.214844 132.75 L 393.195312 135 M 390.882812 130.480469 L 390.902344 128.230469 L 393.25 128.25 L 393.230469 130.5 M 390.921875 125.980469 L 390.941406 123.730469 L 393.289062 123.75 L 393.269531 126 M 390.960938 121.476562 L 390.980469 119.226562 L 393.328125 119.25 L 393.308594 121.5 M 390.996094 116.976562 L 391.015625 114.726562 L 393.363281 114.746094 L 393.34375 117 M 391.035156 112.476562 L 391.054688 110.226562 L 393.402344 110.246094 L 393.382812 112.496094 M 391.074219 107.976562 L 391.089844 105.726562 L 393.441406 105.746094 L 393.421875 107.996094 M 391.109375 103.476562 L 391.128906 101.226562 L 393.476562 101.246094 L 393.457031 103.496094 M 391.148438 98.976562 L 391.167969 96.726562 L 393.515625 96.746094 L 393.496094 98.996094 M 391.1875 94.476562 L 391.203125 92.226562 L 393.554688 92.246094 L 393.535156 94.496094 M 391.222656 89.976562 L 391.242188 87.726562 L 393.589844 87.746094 L 393.570312 89.996094 M 391.261719 85.476562 L 391.28125 83.226562 L 393.628906 83.246094 L 393.609375 85.496094 M 391.300781 80.976562 L 391.316406 78.726562 L 393.664062 78.746094 L 393.648438 80.996094 M 391.335938 76.476562 L 391.355469 74.226562 L 393.703125 74.246094 L 393.683594 76.496094 M 391.375 71.976562 L 391.394531 69.726562 L 393.742188 69.746094 L 393.722656 71.996094 M 391.414062 67.476562 L 391.429688 65.226562 L 393.777344 65.246094 L 393.761719 67.496094 M 391.449219 62.976562 L 391.46875 60.726562 L 393.816406 60.746094 L 393.796875 62.996094 M 391.488281 58.476562 L 391.507812 56.226562 L 393.855469 56.246094 L 393.835938 58.496094 M 391.527344 53.976562 L 391.542969 51.726562 L 393.890625 51.746094 L 393.875 53.996094 M 391.5625 49.476562 L 391.582031 47.226562 L 393.929688 47.246094 L 393.910156 49.496094 M 391.601562 44.976562 L 391.621094 42.726562 L 393.96875 42.746094 L 393.949219 44.996094 M 391.640625 40.476562 L 391.65625 38.226562 L 394.003906 38.246094 L 393.988281 40.496094 M 391.675781 35.976562 L 391.695312 33.726562 L 394.042969 33.746094 L 394.023438 35.996094 M 391.714844 31.476562 L 391.734375 29.226562 L 394.082031 29.246094 L 394.0625 31.496094 M 391.753906 26.976562 L 391.769531 24.726562 L 394.117188 24.746094 L 394.101562 26.996094 M 391.789062 22.476562 L 391.808594 20.226562 L 394.15625 20.246094 L 394.136719 22.496094 M 391.828125 17.976562 L 391.847656 15.726562 L 394.195312 15.746094 L 394.175781 17.996094 M 391.867188 13.476562 L 391.882812 11.226562 L 394.230469 11.246094 L 394.214844 13.496094 M 391.902344 8.976562 L 391.921875 6.726562 L 394.269531 6.746094 L 394.25 8.996094 M 391.941406 4.476562 L 391.960938 2.226562 L 394.308594 2.246094 L 394.289062 4.496094 " fill-opacity="1" fill-rule="nonzero"/><g fill="#000000" fill-opacity="1"><g transform="translate(85.908924, 77.694921)"><g><path d="M 12.269531 0 L 22.5 0 L 22.5 -26.113281 L 33.34375 -26.113281 L 33.34375 -35.632812 L 1.425781 -35.632812 L 1.425781 -26.113281 L 12.269531 -26.113281 Z M 12.269531 0 "/></g></g></g><g fill="#000000" fill-opacity="1"><g transform="translate(120.674478, 77.694921)"><g><path d="M 11.707031 0 L 21.941406 0 L 28.40625 -19.800781 L 34.871094 0 L 45.101562 0 L 56.554688 -35.632812 L 45.765625 -35.632812 L 43.269531 -27.691406 L 39.605469 -16.289062 L 33.292969 -35.632812 L 23.519531 -35.632812 L 20.871094 -27.691406 L 17.257812 -16.59375 L 13.644531 -27.691406 L 11.148438 -35.632812 L 0.253906 -35.632812 Z M 11.707031 0 "/></g></g></g><g fill="#000000" fill-opacity="1"><g transform="translate(177.480268, 77.694921)"><g><path d="M 0.253906 0 L 11.148438 0 L 13.082031 -5.039062 L 25.25 -5.039062 L 27.183594 0 L 38.128906 0 L 24.28125 -35.632812 L 14.101562 -35.632812 Z M 15.222656 -12.574219 L 19.191406 -23.621094 L 23.160156 -12.574219 Z M 15.222656 -12.574219 "/></g></g></g><g fill="#000000" fill-opacity="1"><g transform="translate(215.859805, 77.694921)"><g><path d="M 3.765625 0 L 13.949219 0 L 13.949219 -18.171875 L 27.488281 0 L 35.835938 0 L 35.835938 -35.632812 L 25.707031 -35.632812 L 25.707031 -17.5625 L 12.167969 -35.632812 L 3.765625 -35.632812 Z M 3.765625 0 "/></g></g></g><g fill="#000000" fill-opacity="1"><g transform="translate(255.511874, 77.694921)"><g><path d="M 9.214844 0 L 19.191406 0 L 19.191406 -35.632812 L 11.65625 -35.632812 L 11.046875 -33.953125 C 10.078125 -31.203125 8.296875 -30.136719 4.886719 -30.136719 L 1.222656 -30.136719 L 1.222656 -21.378906 L 9.214844 -21.378906 Z M 9.214844 0 "/></g></g></g><g fill="#000000" fill-opacity="1"><g transform="translate(278.468325, 77.694921)"><g><path d="M 1.984375 0 L 29.984375 0 L 29.984375 -8.753906 L 17.917969 -8.753906 L 22.601562 -12.625 C 27.742188 -16.644531 29.269531 -20.566406 29.269531 -24.484375 C 29.269531 -31.816406 23.925781 -36.398438 15.832031 -36.398438 C 7.484375 -36.398438 2.445312 -31.5625 2.238281 -23.160156 L 11.554688 -23.160156 C 11.65625 -26.0625 13.132812 -27.691406 15.578125 -27.691406 C 17.917969 -27.691406 19.445312 -26.113281 19.445312 -23.824219 C 19.445312 -22.09375 18.582031 -20.667969 16.796875 -19.191406 L 1.984375 -7.074219 Z M 1.984375 0 "/></g></g></g><g fill="#000000" fill-opacity="1"><g transform="translate(311.35053, 77.694921)"><g><path d="M 17.867188 0.761719 C 27.84375 0.761719 33.699219 -6.160156 33.699219 -17.816406 C 33.699219 -29.472656 27.84375 -36.398438 17.867188 -36.398438 C 7.890625 -36.398438 2.035156 -29.472656 2.035156 -17.816406 C 2.035156 -6.160156 7.890625 0.761719 17.867188 0.761719 Z M 11.910156 -17.816406 C 11.910156 -23.976562 13.898438 -27.539062 17.867188 -27.539062 C 21.839844 -27.539062 23.824219 -23.976562 23.824219 -17.816406 C 23.824219 -11.707031 21.789062 -8.09375 17.867188 -8.09375 C 13.898438 -8.09375 11.910156 -11.65625 11.910156 -17.816406 Z M 11.910156 -17.816406 "/></g></g></g><g fill="#000000" fill-opacity="1"><g transform="translate(136.67253, 112.039926)"><g><path d="M 1.1875 0 L 1.1875 -9.765625 L 2.359375 -9.765625 L 2.359375 -5.421875 L 7.5625 -5.421875 L 7.5625 -9.765625 L 8.75 -9.765625 L 8.75 0 L 7.5625 0 L 7.5625 -4.359375 L 2.359375 -4.359375 L 2.359375 0 Z M 1.1875 0 "/></g></g></g><g fill="#000000" fill-opacity="1"><g transform="translate(146.608123, 112.039926)"><g><path d="M 3.1875 0.171875 C 2.71875 0.171875 2.296875 0.0820312 1.921875 -0.09375 C 1.546875 -0.269531 1.242188 -0.523438 1.015625 -0.859375 C 0.796875 -1.191406 0.6875 -1.597656 0.6875 -2.078125 C 0.6875 -2.492188 0.769531 -2.832031 0.9375 -3.09375 C 1.101562 -3.363281 1.320312 -3.570312 1.59375 -3.71875 C 1.875 -3.863281 2.179688 -3.972656 2.515625 -4.046875 C 2.847656 -4.128906 3.1875 -4.191406 3.53125 -4.234375 C 3.96875 -4.285156 4.328125 -4.328125 4.609375 -4.359375 C 4.890625 -4.390625 5.09375 -4.441406 5.21875 -4.515625 C 5.351562 -4.585938 5.421875 -4.71875 5.421875 -4.90625 L 5.421875 -4.9375 C 5.421875 -5.40625 5.289062 -5.769531 5.03125 -6.03125 C 4.769531 -6.289062 4.382812 -6.421875 3.875 -6.421875 C 3.332031 -6.421875 2.910156 -6.300781 2.609375 -6.0625 C 2.304688 -5.832031 2.09375 -5.582031 1.96875 -5.3125 L 0.890625 -5.703125 C 1.085938 -6.148438 1.34375 -6.492188 1.65625 -6.734375 C 1.976562 -6.984375 2.328125 -7.160156 2.703125 -7.265625 C 3.085938 -7.367188 3.460938 -7.421875 3.828125 -7.421875 C 4.066406 -7.421875 4.335938 -7.390625 4.640625 -7.328125 C 4.953125 -7.273438 5.25 -7.160156 5.53125 -6.984375 C 5.820312 -6.816406 6.0625 -6.5625 6.25 -6.21875 C 6.445312 -5.875 6.546875 -5.410156 6.546875 -4.828125 L 6.546875 0 L 5.421875 0 L 5.421875 -0.984375 L 5.359375 -0.984375 C 5.285156 -0.828125 5.15625 -0.65625 4.96875 -0.46875 C 4.789062 -0.289062 4.554688 -0.140625 4.265625 -0.015625 C 3.972656 0.109375 3.613281 0.171875 3.1875 0.171875 Z M 3.359375 -0.84375 C 3.796875 -0.84375 4.164062 -0.925781 4.46875 -1.09375 C 4.78125 -1.269531 5.015625 -1.492188 5.171875 -1.765625 C 5.335938 -2.046875 5.421875 -2.34375 5.421875 -2.65625 L 5.421875 -3.671875 C 5.367188 -3.617188 5.257812 -3.566406 5.09375 -3.515625 C 4.9375 -3.472656 4.753906 -3.4375 4.546875 -3.40625 C 4.335938 -3.375 4.132812 -3.34375 3.9375 -3.3125 C 3.75 -3.289062 3.59375 -3.273438 3.46875 -3.265625 C 3.175781 -3.222656 2.90625 -3.160156 2.65625 -3.078125 C 2.40625 -2.992188 2.203125 -2.867188 2.046875 -2.703125 C 1.890625 -2.535156 1.8125 -2.304688 1.8125 -2.015625 C 1.8125 -1.628906 1.957031 -1.335938 2.25 -1.140625 C 2.539062 -0.941406 2.910156 -0.84375 3.359375 -0.84375 Z M 3.59375 2.453125 C 3.375 2.453125 3.1875 2.378906 3.03125 2.234375 C 2.875 2.085938 2.796875 1.910156 2.796875 1.703125 C 2.796875 1.484375 2.875 1.300781 3.03125 1.15625 C 3.1875 1.007812 3.375 0.9375 3.59375 0.9375 C 3.820312 0.9375 4.015625 1.007812 4.171875 1.15625 C 4.328125 1.300781 4.40625 1.484375 4.40625 1.703125 C 4.40625 1.910156 4.328125 2.085938 4.171875 2.234375 C 4.015625 2.378906 3.820312 2.453125 3.59375 2.453125 Z M 3.59375 2.453125 "/></g></g></g><g fill="#000000" fill-opacity="1"><g transform="translate(154.179007, 112.039926)"><g><path d="M 2.15625 -4.40625 L 2.15625 0 L 1.03125 0 L 1.03125 -7.328125 L 2.109375 -7.328125 L 2.109375 -6.171875 L 2.21875 -6.171875 C 2.382812 -6.546875 2.640625 -6.847656 2.984375 -7.078125 C 3.335938 -7.304688 3.789062 -7.421875 4.34375 -7.421875 C 5.082031 -7.421875 5.679688 -7.191406 6.140625 -6.734375 C 6.597656 -6.273438 6.828125 -5.582031 6.828125 -4.65625 L 6.828125 0 L 5.703125 0 L 5.703125 -4.578125 C 5.703125 -5.148438 5.550781 -5.597656 5.25 -5.921875 C 4.945312 -6.242188 4.535156 -6.40625 4.015625 -6.40625 C 3.484375 -6.40625 3.039062 -6.226562 2.6875 -5.875 C 2.332031 -5.53125 2.15625 -5.039062 2.15625 -4.40625 Z M 2.15625 -4.40625 "/></g></g></g><g fill="#000000" fill-opacity="1"><g transform="translate(162.035943, 112.039926)"><g/></g></g><g fill="#000000" fill-opacity="1"><g transform="translate(165.811854, 112.039926)"><g><path d="M 6.21875 -5.6875 L 5.203125 -5.390625 C 5.109375 -5.648438 4.941406 -5.890625 4.703125 -6.109375 C 4.472656 -6.328125 4.113281 -6.4375 3.625 -6.4375 C 3.175781 -6.4375 2.800781 -6.332031 2.5 -6.125 C 2.207031 -5.925781 2.0625 -5.671875 2.0625 -5.359375 C 2.0625 -5.078125 2.160156 -4.851562 2.359375 -4.6875 C 2.566406 -4.53125 2.882812 -4.398438 3.3125 -4.296875 L 4.40625 -4.015625 C 5.695312 -3.703125 6.34375 -3.046875 6.34375 -2.046875 C 6.34375 -1.617188 6.222656 -1.238281 5.984375 -0.90625 C 5.742188 -0.582031 5.410156 -0.320312 4.984375 -0.125 C 4.554688 0.0625 4.054688 0.15625 3.484375 0.15625 C 2.742188 0.15625 2.128906 -0.00390625 1.640625 -0.328125 C 1.148438 -0.648438 0.835938 -1.125 0.703125 -1.75 L 1.765625 -2.015625 C 1.972656 -1.234375 2.539062 -0.84375 3.46875 -0.84375 C 3.988281 -0.84375 4.40625 -0.953125 4.71875 -1.171875 C 5.03125 -1.398438 5.1875 -1.671875 5.1875 -1.984375 C 5.1875 -2.503906 4.820312 -2.847656 4.09375 -3.015625 L 2.875 -3.296875 C 2.207031 -3.453125 1.71875 -3.695312 1.40625 -4.03125 C 1.09375 -4.375 0.9375 -4.796875 0.9375 -5.296875 C 0.9375 -5.710938 1.050781 -6.078125 1.28125 -6.390625 C 1.519531 -6.710938 1.835938 -6.960938 2.234375 -7.140625 C 2.640625 -7.328125 3.101562 -7.421875 3.625 -7.421875 C 4.34375 -7.421875 4.910156 -7.257812 5.328125 -6.9375 C 5.742188 -6.625 6.039062 -6.207031 6.21875 -5.6875 Z M 6.21875 -5.6875 "/></g></g></g><g fill="#000000" fill-opacity="1"><g transform="translate(172.829699, 112.039926)"><g><path d="M 7.625 -7.640625 L 8.625 -7.640625 C 8.625 -6.972656 8.492188 -6.453125 8.234375 -6.078125 C 7.972656 -5.710938 7.484375 -5.507812 6.765625 -5.46875 L 6.765625 0 L 5.640625 0 L 5.640625 -1.234375 L 5.5625 -1.234375 C 5.394531 -0.867188 5.128906 -0.554688 4.765625 -0.296875 C 4.398438 -0.0351562 3.941406 0.09375 3.390625 0.09375 C 2.703125 0.09375 2.132812 -0.128906 1.6875 -0.578125 C 1.25 -1.035156 1.03125 -1.734375 1.03125 -2.671875 L 1.03125 -7.328125 L 2.15625 -7.328125 L 2.15625 -2.75 C 2.15625 -2.207031 2.304688 -1.773438 2.609375 -1.453125 C 2.910156 -1.140625 3.289062 -0.984375 3.75 -0.984375 C 4.03125 -0.984375 4.316406 -1.054688 4.609375 -1.203125 C 4.898438 -1.347656 5.144531 -1.566406 5.34375 -1.859375 C 5.539062 -2.160156 5.640625 -2.539062 5.640625 -3 L 5.640625 -7.328125 L 6.765625 -7.328125 L 6.765625 -6.25 C 7.046875 -6.28125 7.242188 -6.347656 7.359375 -6.453125 C 7.484375 -6.554688 7.554688 -6.707031 7.578125 -6.90625 C 7.609375 -7.101562 7.625 -7.347656 7.625 -7.640625 Z M 4.609375 -8.140625 L 3.671875 -8.140625 L 3.671875 -9.171875 C 4.003906 -9.191406 4.238281 -9.238281 4.375 -9.3125 C 4.519531 -9.382812 4.59375 -9.492188 4.59375 -9.640625 C 4.59375 -9.816406 4.488281 -9.941406 4.28125 -10.015625 C 4.082031 -10.097656 3.84375 -10.140625 3.5625 -10.140625 L 3.59375 -10.859375 C 4.25 -10.859375 4.742188 -10.742188 5.078125 -10.515625 C 5.421875 -10.296875 5.59375 -9.992188 5.59375 -9.609375 C 5.59375 -9.285156 5.488281 -9.046875 5.28125 -8.890625 C 5.082031 -8.742188 4.859375 -8.65625 4.609375 -8.625 Z M 4.609375 -8.140625 "/></g></g></g><g fill="#000000" fill-opacity="1"><g transform="translate(181.182465, 112.039926)"><g/></g></g><g fill="#000000" fill-opacity="1"><g transform="translate(184.958376, 112.039926)"><g><path d="M 3.796875 0.15625 C 3.179688 0.15625 2.640625 0 2.171875 -0.3125 C 1.710938 -0.625 1.347656 -1.0625 1.078125 -1.625 C 0.816406 -2.195312 0.6875 -2.867188 0.6875 -3.640625 C 0.6875 -4.410156 0.816406 -5.078125 1.078125 -5.640625 C 1.347656 -6.203125 1.71875 -6.640625 2.1875 -6.953125 C 2.65625 -7.265625 3.195312 -7.421875 3.8125 -7.421875 C 4.289062 -7.421875 4.664062 -7.335938 4.9375 -7.171875 C 5.21875 -7.015625 5.429688 -6.835938 5.578125 -6.640625 C 5.734375 -6.441406 5.847656 -6.28125 5.921875 -6.15625 L 6.03125 -6.15625 L 6.03125 -9.765625 L 7.15625 -9.765625 L 7.15625 0 L 6.0625 0 L 6.0625 -1.125 L 5.921875 -1.125 C 5.847656 -0.988281 5.734375 -0.816406 5.578125 -0.609375 C 5.421875 -0.410156 5.203125 -0.234375 4.921875 -0.078125 C 4.640625 0.078125 4.265625 0.15625 3.796875 0.15625 Z M 3.953125 -0.859375 C 4.628906 -0.859375 5.144531 -1.117188 5.5 -1.640625 C 5.863281 -2.160156 6.046875 -2.832031 6.046875 -3.65625 C 6.046875 -4.476562 5.863281 -5.140625 5.5 -5.640625 C 5.144531 -6.148438 4.628906 -6.40625 3.953125 -6.40625 C 3.472656 -6.40625 3.070312 -6.28125 2.75 -6.03125 C 2.4375 -5.789062 2.203125 -5.460938 2.046875 -5.046875 C 1.890625 -4.640625 1.8125 -4.175781 1.8125 -3.65625 C 1.8125 -3.132812 1.890625 -2.660156 2.046875 -2.234375 C 2.210938 -1.816406 2.453125 -1.484375 2.765625 -1.234375 C 3.078125 -0.984375 3.472656 -0.859375 3.953125 -0.859375 Z M 3.953125 -0.859375 "/></g></g></g><g fill="#000000" fill-opacity="1"><g transform="translate(193.29207, 112.039926)"><g><path d="M 5.640625 -3 L 5.640625 -7.328125 L 6.765625 -7.328125 L 6.765625 0 L 5.640625 0 L 5.640625 -1.234375 L 5.5625 -1.234375 C 5.394531 -0.867188 5.128906 -0.554688 4.765625 -0.296875 C 4.398438 -0.0351562 3.941406 0.09375 3.390625 0.09375 C 2.703125 0.09375 2.132812 -0.128906 1.6875 -0.578125 C 1.25 -1.035156 1.03125 -1.734375 1.03125 -2.671875 L 1.03125 -7.328125 L 2.15625 -7.328125 L 2.15625 -2.75 C 2.15625 -2.207031 2.304688 -1.773438 2.609375 -1.453125 C 2.910156 -1.140625 3.289062 -0.984375 3.75 -0.984375 C 4.03125 -0.984375 4.316406 -1.054688 4.609375 -1.203125 C 4.898438 -1.347656 5.144531 -1.566406 5.34375 -1.859375 C 5.539062 -2.160156 5.640625 -2.539062 5.640625 -3 Z M 3.59375 2.453125 C 3.375 2.453125 3.1875 2.378906 3.03125 2.234375 C 2.875 2.085938 2.796875 1.910156 2.796875 1.703125 C 2.796875 1.484375 2.875 1.300781 3.03125 1.15625 C 3.1875 1.007812 3.375 0.9375 3.59375 0.9375 C 3.820312 0.9375 4.015625 1.007812 4.171875 1.15625 C 4.328125 1.300781 4.40625 1.484375 4.40625 1.703125 C 4.40625 1.910156 4.328125 2.085938 4.171875 2.234375 C 4.015625 2.378906 3.820312 2.453125 3.59375 2.453125 Z M 3.59375 2.453125 "/></g></g></g><g fill="#000000" fill-opacity="1"><g transform="translate(201.091797, 112.039926)"><g><path d="M 2.15625 -4.40625 L 2.15625 0 L 1.03125 0 L 1.03125 -7.328125 L 2.109375 -7.328125 L 2.109375 -6.171875 L 2.21875 -6.171875 C 2.382812 -6.546875 2.640625 -6.847656 2.984375 -7.078125 C 3.335938 -7.304688 3.789062 -7.421875 4.34375 -7.421875 C 5.082031 -7.421875 5.679688 -7.191406 6.140625 -6.734375 C 6.597656 -6.273438 6.828125 -5.582031 6.828125 -4.65625 L 6.828125 0 L 5.703125 0 L 5.703125 -4.578125 C 5.703125 -5.148438 5.550781 -5.597656 5.25 -5.921875 C 4.945312 -6.242188 4.535156 -6.40625 4.015625 -6.40625 C 3.484375 -6.40625 3.039062 -6.226562 2.6875 -5.875 C 2.332031 -5.53125 2.15625 -5.039062 2.15625 -4.40625 Z M 2.15625 -4.40625 "/></g></g></g><g fill="#000000" fill-opacity="1"><g transform="translate(208.948732, 112.039926)"><g><path d="M 3.984375 2.890625 C 3.171875 2.890625 2.523438 2.738281 2.046875 2.4375 C 1.566406 2.144531 1.210938 1.8125 0.984375 1.4375 L 1.890625 0.796875 C 1.992188 0.929688 2.117188 1.082031 2.265625 1.25 C 2.421875 1.425781 2.632812 1.578125 2.90625 1.703125 C 3.1875 1.835938 3.546875 1.90625 3.984375 1.90625 C 4.578125 1.90625 5.066406 1.757812 5.453125 1.46875 C 5.835938 1.1875 6.03125 0.742188 6.03125 0.140625 L 6.03125 -1.359375 L 5.921875 -1.359375 C 5.847656 -1.222656 5.734375 -1.054688 5.578125 -0.859375 C 5.429688 -0.660156 5.21875 -0.484375 4.9375 -0.328125 C 4.65625 -0.179688 4.273438 -0.109375 3.796875 -0.109375 C 3.203125 -0.109375 2.671875 -0.25 2.203125 -0.53125 C 1.734375 -0.8125 1.363281 -1.21875 1.09375 -1.75 C 0.820312 -2.289062 0.6875 -2.941406 0.6875 -3.703125 C 0.6875 -4.453125 0.816406 -5.101562 1.078125 -5.65625 C 1.347656 -6.21875 1.71875 -6.648438 2.1875 -6.953125 C 2.65625 -7.265625 3.195312 -7.421875 3.8125 -7.421875 C 4.289062 -7.421875 4.671875 -7.335938 4.953125 -7.171875 C 5.234375 -7.015625 5.445312 -6.835938 5.59375 -6.640625 C 5.75 -6.441406 5.867188 -6.28125 5.953125 -6.15625 L 6.0625 -6.15625 L 6.0625 -7.328125 L 7.15625 -7.328125 L 7.15625 0.203125 C 7.15625 0.835938 7.007812 1.351562 6.71875 1.75 C 6.4375 2.144531 6.054688 2.429688 5.578125 2.609375 C 5.097656 2.796875 4.566406 2.890625 3.984375 2.890625 Z M 3.953125 -1.125 C 4.628906 -1.125 5.144531 -1.351562 5.5 -1.8125 C 5.863281 -2.269531 6.046875 -2.90625 6.046875 -3.71875 C 6.046875 -4.507812 5.863281 -5.15625 5.5 -5.65625 C 5.144531 -6.15625 4.628906 -6.40625 3.953125 -6.40625 C 3.472656 -6.40625 3.070312 -6.285156 2.75 -6.046875 C 2.4375 -5.804688 2.203125 -5.484375 2.046875 -5.078125 C 1.890625 -4.671875 1.8125 -4.21875 1.8125 -3.71875 C 1.8125 -2.957031 1.988281 -2.332031 2.34375 -1.84375 C 2.707031 -1.363281 3.242188 -1.125 3.953125 -1.125 Z M 3.953125 -1.125 "/></g></g></g><g fill="#000000" fill-opacity="1"><g transform="translate(217.129863, 112.039926)"><g><path d="M 1.84375 0.078125 C 1.613281 0.078125 1.410156 -0.00390625 1.234375 -0.171875 C 1.066406 -0.335938 0.984375 -0.539062 0.984375 -0.78125 C 0.984375 -1.019531 1.066406 -1.222656 1.234375 -1.390625 C 1.410156 -1.554688 1.613281 -1.640625 1.84375 -1.640625 C 2.082031 -1.640625 2.285156 -1.554688 2.453125 -1.390625 C 2.617188 -1.222656 2.703125 -1.019531 2.703125 -0.78125 C 2.703125 -0.539062 2.617188 -0.335938 2.453125 -0.171875 C 2.285156 -0.00390625 2.082031 0.078125 1.84375 0.078125 Z M 1.84375 -4.921875 C 1.613281 -4.921875 1.410156 -5.003906 1.234375 -5.171875 C 1.066406 -5.335938 0.984375 -5.539062 0.984375 -5.78125 C 0.984375 -6.019531 1.066406 -6.222656 1.234375 -6.390625 C 1.410156 -6.554688 1.613281 -6.640625 1.84375 -6.640625 C 2.082031 -6.640625 2.285156 -6.554688 2.453125 -6.390625 C 2.617188 -6.222656 2.703125 -6.019531 2.703125 -5.78125 C 2.703125 -5.539062 2.617188 -5.335938 2.453125 -5.171875 C 2.285156 -5.003906 2.082031 -4.921875 1.84375 -4.921875 Z M 1.84375 -4.921875 "/></g></g></g><g fill="#000000" fill-opacity="1"><g transform="translate(220.829494, 112.039926)"><g/></g></g><g fill="#000000" fill-opacity="1"><g transform="translate(224.605405, 112.039926)"><g><path d="M 4.1875 0.140625 C 3.113281 0.140625 2.28125 -0.296875 1.6875 -1.171875 C 1.09375 -2.046875 0.796875 -3.28125 0.796875 -4.875 C 0.796875 -6.457031 1.09375 -7.6875 1.6875 -8.5625 C 2.289062 -9.445312 3.125 -9.890625 4.1875 -9.890625 C 5.257812 -9.890625 6.09375 -9.445312 6.6875 -8.5625 C 7.289062 -7.6875 7.59375 -6.457031 7.59375 -4.875 C 7.59375 -3.28125 7.296875 -2.046875 6.703125 -1.171875 C 6.109375 -0.296875 5.269531 0.140625 4.1875 0.140625 Z M 4.1875 -0.921875 C 4.90625 -0.921875 5.457031 -1.257812 5.84375 -1.9375 C 6.238281 -2.625 6.4375 -3.601562 6.4375 -4.875 C 6.4375 -6.144531 6.238281 -7.125 5.84375 -7.8125 C 5.445312 -8.507812 4.894531 -8.859375 4.1875 -8.859375 C 3.488281 -8.859375 2.9375 -8.507812 2.53125 -7.8125 C 2.132812 -7.125 1.9375 -6.144531 1.9375 -4.875 C 1.9375 -3.601562 2.132812 -2.625 2.53125 -1.9375 C 2.925781 -1.257812 3.476562 -0.921875 4.1875 -0.921875 Z M 4.1875 -0.921875 "/></g></g></g><g fill="#000000" fill-opacity="1"><g transform="translate(232.996306, 112.039926)"><g><path d="M 4.140625 -9.765625 L 4.140625 0 L 2.953125 0 L 2.953125 -8.046875 L 2.875 -8.046875 C 2.832031 -7.953125 2.71875 -7.847656 2.53125 -7.734375 C 2.351562 -7.628906 2.113281 -7.535156 1.8125 -7.453125 C 1.519531 -7.367188 1.1875 -7.328125 0.8125 -7.328125 L 0.8125 -8.3125 C 1.195312 -8.3125 1.523438 -8.378906 1.796875 -8.515625 C 2.078125 -8.648438 2.3125 -8.8125 2.5 -9 C 2.6875 -9.1875 2.828125 -9.351562 2.921875 -9.5 C 3.015625 -9.644531 3.070312 -9.734375 3.09375 -9.765625 Z M 4.140625 -9.765625 "/></g></g></g><g fill="#000000" fill-opacity="1"><g transform="translate(238.927145, 112.039926)"><g><path d="M 4.484375 -10.21875 L 1.328125 1.46875 L 0.3125 1.46875 L 3.453125 -10.21875 Z M 4.484375 -10.21875 "/></g></g></g><g fill="#000000" fill-opacity="1"><g transform="translate(243.71377, 112.039926)"><g><path d="M 4.1875 0.140625 C 3.113281 0.140625 2.28125 -0.296875 1.6875 -1.171875 C 1.09375 -2.046875 0.796875 -3.28125 0.796875 -4.875 C 0.796875 -6.457031 1.09375 -7.6875 1.6875 -8.5625 C 2.289062 -9.445312 3.125 -9.890625 4.1875 -9.890625 C 5.257812 -9.890625 6.09375 -9.445312 6.6875 -8.5625 C 7.289062 -7.6875 7.59375 -6.457031 7.59375 -4.875 C 7.59375 -3.28125 7.296875 -2.046875 6.703125 -1.171875 C 6.109375 -0.296875 5.269531 0.140625 4.1875 0.140625 Z M 4.1875 -0.921875 C 4.90625 -0.921875 5.457031 -1.257812 5.84375 -1.9375 C 6.238281 -2.625 6.4375 -3.601562 6.4375 -4.875 C 6.4375 -6.144531 6.238281 -7.125 5.84375 -7.8125 C 5.445312 -8.507812 4.894531 -8.859375 4.1875 -8.859375 C 3.488281 -8.859375 2.9375 -8.507812 2.53125 -7.8125 C 2.132812 -7.125 1.9375 -6.144531 1.9375 -4.875 C 1.9375 -3.601562 2.132812 -2.625 2.53125 -1.9375 C 2.925781 -1.257812 3.476562 -0.921875 4.1875 -0.921875 Z M 4.1875 -0.921875 "/></g></g></g><g fill="#000000" fill-opacity="1"><g transform="translate(252.104672, 112.039926)"><g><path d="M 4.140625 -9.765625 L 4.140625 0 L 2.953125 0 L 2.953125 -8.046875 L 2.875 -8.046875 C 2.832031 -7.953125 2.71875 -7.847656 2.53125 -7.734375 C 2.351562 -7.628906 2.113281 -7.535156 1.8125 -7.453125 C 1.519531 -7.367188 1.1875 -7.328125 0.8125 -7.328125 L 0.8125 -8.3125 C 1.195312 -8.3125 1.523438 -8.378906 1.796875 -8.515625 C 2.078125 -8.648438 2.3125 -8.8125 2.5 -9 C 2.6875 -9.1875 2.828125 -9.351562 2.921875 -9.5 C 3.015625 -9.644531 3.070312 -9.734375 3.09375 -9.765625 Z M 4.140625 -9.765625 "/></g></g></g><g fill="#000000" fill-opacity="1"><g transform="translate(258.035511, 112.039926)"><g><path d="M 4.484375 -10.21875 L 1.328125 1.46875 L 0.3125 1.46875 L 3.453125 -10.21875 Z M 4.484375 -10.21875 "/></g></g></g><g fill="#000000" fill-opacity="1"><g transform="translate(262.822136, 112.039926)"><g><path d="M 1.015625 0 L 1.015625 -0.859375 L 4.234375 -4.390625 C 4.609375 -4.796875 4.914062 -5.148438 5.15625 -5.453125 C 5.40625 -5.765625 5.585938 -6.054688 5.703125 -6.328125 C 5.828125 -6.597656 5.890625 -6.882812 5.890625 -7.1875 C 5.890625 -7.695312 5.707031 -8.101562 5.34375 -8.40625 C 4.988281 -8.707031 4.546875 -8.859375 4.015625 -8.859375 C 3.453125 -8.859375 3.003906 -8.6875 2.671875 -8.34375 C 2.335938 -8.007812 2.171875 -7.566406 2.171875 -7.015625 L 1.046875 -7.015625 C 1.046875 -7.585938 1.175781 -8.085938 1.4375 -8.515625 C 1.707031 -8.953125 2.066406 -9.289062 2.515625 -9.53125 C 2.972656 -9.769531 3.488281 -9.890625 4.0625 -9.890625 C 4.632812 -9.890625 5.140625 -9.769531 5.578125 -9.53125 C 6.023438 -9.289062 6.375 -8.960938 6.625 -8.546875 C 6.875 -8.140625 7 -7.6875 7 -7.1875 C 7 -6.832031 6.929688 -6.484375 6.796875 -6.140625 C 6.671875 -5.796875 6.445312 -5.414062 6.125 -5 C 5.8125 -4.582031 5.378906 -4.070312 4.828125 -3.46875 L 2.625 -1.125 L 2.625 -1.046875 L 7.171875 -1.046875 L 7.171875 0 Z M 1.015625 0 "/></g></g></g><g fill="#000000" fill-opacity="1"><g transform="translate(270.94606, 112.039926)"><g><path d="M 4.1875 0.140625 C 3.113281 0.140625 2.28125 -0.296875 1.6875 -1.171875 C 1.09375 -2.046875 0.796875 -3.28125 0.796875 -4.875 C 0.796875 -6.457031 1.09375 -7.6875 1.6875 -8.5625 C 2.289062 -9.445312 3.125 -9.890625 4.1875 -9.890625 C 5.257812 -9.890625 6.09375 -9.445312 6.6875 -8.5625 C 7.289062 -7.6875 7.59375 -6.457031 7.59375 -4.875 C 7.59375 -3.28125 7.296875 -2.046875 6.703125 -1.171875 C 6.109375 -0.296875 5.269531 0.140625 4.1875 0.140625 Z M 4.1875 -0.921875 C 4.90625 -0.921875 5.457031 -1.257812 5.84375 -1.9375 C 6.238281 -2.625 6.4375 -3.601562 6.4375 -4.875 C 6.4375 -6.144531 6.238281 -7.125 5.84375 -7.8125 C 5.445312 -8.507812 4.894531 -8.859375 4.1875 -8.859375 C 3.488281 -8.859375 2.9375 -8.507812 2.53125 -7.8125 C 2.132812 -7.125 1.9375 -6.144531 1.9375 -4.875 C 1.9375 -3.601562 2.132812 -2.625 2.53125 -1.9375 C 2.925781 -1.257812 3.476562 -0.921875 4.1875 -0.921875 Z M 4.1875 -0.921875 "/></g></g></g><g fill="#000000" fill-opacity="1"><g transform="translate(279.336961, 112.039926)"><g><path d="M 1.015625 0 L 1.015625 -0.859375 L 4.234375 -4.390625 C 4.609375 -4.796875 4.914062 -5.148438 5.15625 -5.453125 C 5.40625 -5.765625 5.585938 -6.054688 5.703125 -6.328125 C 5.828125 -6.597656 5.890625 -6.882812 5.890625 -7.1875 C 5.890625 -7.695312 5.707031 -8.101562 5.34375 -8.40625 C 4.988281 -8.707031 4.546875 -8.859375 4.015625 -8.859375 C 3.453125 -8.859375 3.003906 -8.6875 2.671875 -8.34375 C 2.335938 -8.007812 2.171875 -7.566406 2.171875 -7.015625 L 1.046875 -7.015625 C 1.046875 -7.585938 1.175781 -8.085938 1.4375 -8.515625 C 1.707031 -8.953125 2.066406 -9.289062 2.515625 -9.53125 C 2.972656 -9.769531 3.488281 -9.890625 4.0625 -9.890625 C 4.632812 -9.890625 5.140625 -9.769531 5.578125 -9.53125 C 6.023438 -9.289062 6.375 -8.960938 6.625 -8.546875 C 6.875 -8.140625 7 -7.6875 7 -7.1875 C 7 -6.832031 6.929688 -6.484375 6.796875 -6.140625 C 6.671875 -5.796875 6.445312 -5.414062 6.125 -5 C 5.8125 -4.582031 5.378906 -4.070312 4.828125 -3.46875 L 2.625 -1.125 L 2.625 -1.046875 L 7.171875 -1.046875 L 7.171875 0 Z M 1.015625 0 "/></g></g></g><g fill="#000000" fill-opacity="1"><g transform="translate(287.460885, 112.039926)"><g><path d="M 4.3125 0.140625 C 3.675781 0.140625 3.113281 0.03125 2.625 -0.1875 C 2.132812 -0.40625 1.742188 -0.707031 1.453125 -1.09375 C 1.171875 -1.476562 1.015625 -1.925781 0.984375 -2.4375 L 2.1875 -2.4375 C 2.226562 -1.96875 2.445312 -1.597656 2.84375 -1.328125 C 3.238281 -1.054688 3.722656 -0.921875 4.296875 -0.921875 C 4.921875 -0.921875 5.429688 -1.078125 5.828125 -1.390625 C 6.234375 -1.710938 6.4375 -2.132812 6.4375 -2.65625 C 6.4375 -3.1875 6.238281 -3.625 5.84375 -3.96875 C 5.445312 -4.3125 4.878906 -4.484375 4.140625 -4.484375 L 3.359375 -4.484375 L 3.359375 -5.53125 L 4.140625 -5.53125 C 4.710938 -5.53125 5.179688 -5.679688 5.546875 -5.984375 C 5.910156 -6.296875 6.09375 -6.707031 6.09375 -7.21875 C 6.09375 -7.71875 5.929688 -8.113281 5.609375 -8.40625 C 5.296875 -8.707031 4.867188 -8.859375 4.328125 -8.859375 C 3.992188 -8.859375 3.675781 -8.796875 3.375 -8.671875 C 3.082031 -8.554688 2.84375 -8.382812 2.65625 -8.15625 C 2.46875 -7.925781 2.363281 -7.648438 2.34375 -7.328125 L 1.203125 -7.328125 C 1.222656 -7.835938 1.375 -8.285156 1.65625 -8.671875 C 1.945312 -9.054688 2.328125 -9.351562 2.796875 -9.5625 C 3.265625 -9.78125 3.78125 -9.890625 4.34375 -9.890625 C 4.945312 -9.890625 5.460938 -9.769531 5.890625 -9.53125 C 6.328125 -9.289062 6.660156 -8.96875 6.890625 -8.5625 C 7.128906 -8.164062 7.25 -7.738281 7.25 -7.28125 C 7.25 -6.726562 7.101562 -6.257812 6.8125 -5.875 C 6.519531 -5.488281 6.128906 -5.222656 5.640625 -5.078125 L 5.640625 -5 C 6.253906 -4.894531 6.734375 -4.628906 7.078125 -4.203125 C 7.429688 -3.785156 7.609375 -3.269531 7.609375 -2.65625 C 7.609375 -2.125 7.460938 -1.644531 7.171875 -1.21875 C 6.890625 -0.800781 6.5 -0.46875 6 -0.21875 C 5.5 0.0195312 4.9375 0.140625 4.3125 0.140625 Z M 4.3125 0.140625 "/></g></g></g><g fill="#f9f2ed" fill-opacity="1"><g transform="translate(447.471159, 165.377346)"><g><path d="M -15.484375 -2.515625 L -2.453125 -7.109375 L -2.453125 -7.28125 L -15.484375 -11.875 L -15.484375 -13.84375 L 0 -8.15625 L 0 -6.234375 L -15.484375 -0.546875 Z M -15.484375 -2.515625 "/></g></g></g><g fill="#f9f2ed" fill-opacity="1"><g transform="translate(447.471159, 146.183506)"><g><path d="M -7.734375 -14.9375 C -6.109375 -14.9375 -4.695312 -14.640625 -3.5 -14.046875 C -2.3125 -13.460938 -1.394531 -12.65625 -0.75 -11.625 C -0.101562 -10.59375 0.21875 -9.414062 0.21875 -8.09375 C 0.21875 -6.78125 -0.101562 -5.609375 -0.75 -4.578125 C -1.394531 -3.546875 -2.3125 -2.734375 -3.5 -2.140625 C -4.695312 -1.554688 -6.109375 -1.265625 -7.734375 -1.265625 C -9.367188 -1.265625 -10.78125 -1.554688 -11.96875 -2.140625 C -13.15625 -2.734375 -14.070312 -3.546875 -14.71875 -4.578125 C -15.363281 -5.609375 -15.6875 -6.78125 -15.6875 -8.09375 C -15.6875 -9.414062 -15.363281 -10.59375 -14.71875 -11.625 C -14.070312 -12.65625 -13.15625 -13.460938 -11.96875 -14.046875 C -10.78125 -14.640625 -9.367188 -14.9375 -7.734375 -14.9375 Z M -7.734375 -13.125 C -9.078125 -13.125 -10.207031 -12.898438 -11.125 -12.453125 C -12.050781 -12.003906 -12.75 -11.398438 -13.21875 -10.640625 C -13.695312 -9.878906 -13.9375 -9.03125 -13.9375 -8.09375 C -13.9375 -7.164062 -13.695312 -6.320312 -13.21875 -5.5625 C -12.75 -4.800781 -12.050781 -4.195312 -11.125 -3.75 C -10.207031 -3.300781 -9.078125 -3.078125 -7.734375 -3.078125 C -6.398438 -3.078125 -5.269531 -3.300781 -4.34375 -3.75 C -3.425781 -4.195312 -2.726562 -4.800781 -2.25 -5.5625 C -1.78125 -6.320312 -1.546875 -7.164062 -1.546875 -8.09375 C -1.546875 -9.03125 -1.78125 -9.878906 -2.25 -10.640625 C -2.726562 -11.398438 -3.425781 -12.003906 -4.34375 -12.453125 C -5.269531 -12.898438 -6.398438 -13.125 -7.734375 -13.125 Z M -7.734375 -13.125 "/></g></g></g><g fill="#f9f2ed" fill-opacity="1"><g transform="translate(447.471159, 125.176657)"><g><path d="M -15.484375 -12.03125 L -15.484375 -13.90625 L -5.234375 -13.90625 C -4.066406 -13.90625 -3.070312 -13.628906 -2.25 -13.078125 C -1.4375 -12.523438 -0.8125 -11.789062 -0.375 -10.875 C 0.0507812 -9.96875 0.265625 -8.972656 0.265625 -7.890625 C 0.265625 -6.796875 0.0507812 -5.789062 -0.375 -4.875 C -0.8125 -3.96875 -1.4375 -3.238281 -2.25 -2.6875 C -3.070312 -2.144531 -4.066406 -1.875 -5.234375 -1.875 L -15.484375 -1.875 L -15.484375 -3.75 L -5.234375 -3.75 C -4.421875 -3.75 -3.734375 -3.9375 -3.171875 -4.3125 C -2.617188 -4.695312 -2.195312 -5.203125 -1.90625 -5.828125 C -1.625 -6.460938 -1.484375 -7.148438 -1.484375 -7.890625 C -1.484375 -8.628906 -1.625 -9.3125 -1.90625 -9.9375 C -2.195312 -10.5625 -2.617188 -11.066406 -3.171875 -11.453125 C -3.734375 -11.835938 -4.421875 -12.03125 -5.234375 -12.03125 Z M -15.484375 -12.03125 "/></g></g></g><g fill="#f9f2ed" fill-opacity="1"><g transform="translate(447.471159, 104.592838)"><g><path d="M -10.640625 -14.328125 L -10.640625 -12.453125 C -11.359375 -12.304688 -11.957031 -12.015625 -12.4375 -11.578125 C -12.925781 -11.148438 -13.296875 -10.632812 -13.546875 -10.03125 C -13.804688 -9.425781 -13.9375 -8.78125 -13.9375 -8.09375 C -13.9375 -7.164062 -13.695312 -6.320312 -13.21875 -5.5625 C -12.75 -4.800781 -12.050781 -4.195312 -11.125 -3.75 C -10.207031 -3.300781 -9.078125 -3.078125 -7.734375 -3.078125 C -6.398438 -3.078125 -5.269531 -3.300781 -4.34375 -3.75 C -3.425781 -4.195312 -2.726562 -4.800781 -2.25 -5.5625 C -1.78125 -6.320312 -1.546875 -7.164062 -1.546875 -8.09375 C -1.546875 -8.78125 -1.671875 -9.425781 -1.921875 -10.03125 C -2.171875 -10.632812 -2.539062 -11.148438 -3.03125 -11.578125 C -3.519531 -12.015625 -4.125 -12.304688 -4.84375 -12.453125 L -4.84375 -14.328125 C -3.78125 -14.140625 -2.867188 -13.75 -2.109375 -13.15625 C -1.359375 -12.5625 -0.78125 -11.828125 -0.375 -10.953125 C 0.0195312 -10.085938 0.21875 -9.132812 0.21875 -8.09375 C 0.21875 -6.78125 -0.101562 -5.609375 -0.75 -4.578125 C -1.394531 -3.546875 -2.3125 -2.734375 -3.5 -2.140625 C -4.695312 -1.554688 -6.109375 -1.265625 -7.734375 -1.265625 C -9.367188 -1.265625 -10.78125 -1.554688 -11.96875 -2.140625 C -13.15625 -2.734375 -14.070312 -3.546875 -14.71875 -4.578125 C -15.363281 -5.609375 -15.6875 -6.78125 -15.6875 -8.09375 C -15.6875 -9.132812 -15.484375 -10.085938 -15.078125 -10.953125 C -14.679688 -11.828125 -14.109375 -12.5625 -13.359375 -13.15625 C -12.609375 -13.75 -11.703125 -14.140625 -10.640625 -14.328125 Z M -10.640625 -14.328125 "/></g></g></g><g fill="#f9f2ed" fill-opacity="1"><g transform="translate(447.471159, 84.311191)"><g><path d="M 0 -1.875 L -15.484375 -1.875 L -15.484375 -3.75 L -8.578125 -3.75 L -8.578125 -12 L -15.484375 -12 L -15.484375 -13.875 L 0 -13.875 L 0 -12 L -6.921875 -12 L -6.921875 -3.75 L 0 -3.75 Z M 0 -1.875 "/></g></g></g><g fill="#f9f2ed" fill-opacity="1"><g transform="translate(447.471159, 63.757589)"><g><path d="M 0 -1.875 L -15.484375 -1.875 L -15.484375 -11.21875 L -13.8125 -11.21875 L -13.8125 -3.75 L -8.578125 -3.75 L -8.578125 -10.734375 L -6.921875 -10.734375 L -6.921875 -3.75 L -1.65625 -3.75 L -1.65625 -11.328125 L 0 -11.328125 Z M 0 -1.875 "/></g></g></g><g fill="#f9f2ed" fill-opacity="1"><g transform="translate(447.471159, 46.225675)"><g><path d="M 0 -1.875 L -15.484375 -1.875 L -15.484375 -7.109375 C -15.484375 -8.316406 -15.273438 -9.304688 -14.859375 -10.078125 C -14.453125 -10.859375 -13.890625 -11.429688 -13.171875 -11.796875 C -12.453125 -12.171875 -11.640625 -12.359375 -10.734375 -12.359375 C -9.703125 -12.359375 -8.804688 -12.125 -8.046875 -11.65625 C -7.285156 -11.1875 -6.734375 -10.457031 -6.390625 -9.46875 L 0 -12.96875 L 0 -10.796875 L -6.046875 -7.53125 C -6.046875 -7.40625 -6.046875 -7.273438 -6.046875 -7.140625 L -6.046875 -3.75 L 0 -3.75 Z M -7.734375 -3.75 L -7.734375 -7.078125 C -7.734375 -8.316406 -8 -9.195312 -8.53125 -9.71875 C -9.070312 -10.25 -9.804688 -10.515625 -10.734375 -10.515625 C -11.660156 -10.515625 -12.40625 -10.25 -12.96875 -9.71875 C -13.53125 -9.1875 -13.8125 -8.296875 -13.8125 -7.046875 L -13.8125 -3.75 Z M -7.734375 -3.75 "/></g></g></g><g fill="#f9f2ed" fill-opacity="1"><g transform="translate(530.295676, 160.5588)"><g><path d="M 0 -10.507812 L 0 -19.269531 L -39.328125 -19.269531 L -39.328125 -12.585938 L -37.136719 -11.910156 C -34.214844 -11.011719 -33.148438 -9.328125 -33.148438 -5.617188 L -33.148438 -1.628906 L -25.339844 -1.628906 L -25.339844 -10.507812 Z M 0 -10.507812 "/></g></g></g><g fill="#f9f2ed" fill-opacity="1"><g transform="translate(530.295676, 142.303337)"><g><path d="M 0 -2.867188 L 0 -32.359375 L -7.808594 -32.359375 L -7.808594 -16.96875 L -14.269531 -24.382812 C -18.707031 -29.71875 -23.089844 -31.628906 -27.472656 -31.628906 C -35.113281 -31.628906 -40.113281 -25.84375 -40.113281 -17.472656 C -40.113281 -8.820312 -34.890625 -3.425781 -26.125 -3.203125 L -26.125 -11.347656 C -30.167969 -11.515625 -32.472656 -13.765625 -32.472656 -17.304688 C -32.472656 -20.730469 -30.28125 -23.035156 -27.078125 -23.035156 C -24.664062 -23.035156 -22.585938 -21.742188 -20.226562 -19.101562 L -6.292969 -2.867188 Z M 0 -2.867188 "/></g></g></g><g fill="#f9f2ed" fill-opacity="1"><g transform="translate(530.295676, 111.913974)"><g><path d="M 0.785156 -19.71875 C 0.785156 -30.28125 -6.910156 -36.628906 -19.664062 -36.628906 C -32.417969 -36.628906 -40.113281 -30.28125 -40.113281 -19.71875 C -40.113281 -9.15625 -32.417969 -2.808594 -19.664062 -2.808594 C -6.910156 -2.808594 0.785156 -9.15625 0.785156 -19.71875 Z M -19.664062 -11.460938 C -27.472656 -11.460938 -32.136719 -14.4375 -32.136719 -19.71875 C -32.136719 -24.945312 -27.472656 -27.921875 -19.664062 -27.921875 C -11.855469 -27.921875 -7.191406 -24.945312 -7.191406 -19.71875 C -7.191406 -14.4375 -11.855469 -11.460938 -19.664062 -11.460938 Z M -19.664062 -11.460938 "/></g></g></g><g fill="#f9f2ed" fill-opacity="1"><g transform="translate(530.295676, 78.26643)"><g><path d="M 0 -4.71875 L 0 -13.652344 L -15.898438 -13.652344 L -15.898438 -18.371094 C -15.898438 -19.101562 -15.898438 -19.71875 -15.957031 -20.394531 L 0 -28.820312 L 0 -39.214844 L -19.269531 -28.597656 C -20.789062 -30.167969 -22.753906 -31.347656 -25.339844 -32.359375 L -39.328125 -37.808594 L -39.328125 -28.148438 L -29.101562 -24.4375 C -25.394531 -23.089844 -24.214844 -21.460938 -24.214844 -17.023438 L -24.214844 -13.652344 L -39.328125 -13.652344 L -39.328125 -4.71875 Z M 0 -4.71875 "/></g></g></g><g fill="#000000" fill-opacity="1"><g transform="translate(154.857367, 149.157189)"><g><path d="M 4.1875 0 L 1.1875 0 L 1.1875 -9.765625 L 4.328125 -9.765625 C 5.273438 -9.765625 6.082031 -9.566406 6.75 -9.171875 C 7.425781 -8.785156 7.941406 -8.226562 8.296875 -7.5 C 8.660156 -6.78125 8.84375 -5.914062 8.84375 -4.90625 C 8.84375 -3.882812 8.660156 -3.003906 8.296875 -2.265625 C 7.941406 -1.535156 7.414062 -0.972656 6.71875 -0.578125 C 6.03125 -0.191406 5.1875 0 4.1875 0 Z M 2.359375 -1.046875 L 4.125 -1.046875 C 5.332031 -1.046875 6.226562 -1.390625 6.8125 -2.078125 C 7.40625 -2.765625 7.703125 -3.707031 7.703125 -4.90625 C 7.703125 -6.082031 7.410156 -7.007812 6.828125 -7.6875 C 6.253906 -8.375 5.394531 -8.71875 4.25 -8.71875 L 2.359375 -8.71875 Z M -0.078125 -4.296875 L -0.078125 -5.171875 L 4.109375 -5.171875 L 4.109375 -4.296875 Z M -0.078125 -4.296875 "/></g></g></g><g fill="#000000" fill-opacity="1"><g transform="translate(164.506909, 149.157189)"><g><path d="M 6.984375 -7.875 L 8.03125 -7.875 C 8.03125 -7.320312 7.941406 -6.851562 7.765625 -6.46875 C 7.585938 -6.09375 7.289062 -5.828125 6.875 -5.671875 C 7.175781 -5.078125 7.328125 -4.394531 7.328125 -3.625 C 7.328125 -2.863281 7.1875 -2.203125 6.90625 -1.640625 C 6.625 -1.078125 6.234375 -0.632812 5.734375 -0.3125 C 5.242188 0 4.664062 0.15625 4 0.15625 C 3.34375 0.15625 2.765625 0 2.265625 -0.3125 C 1.765625 -0.632812 1.375 -1.078125 1.09375 -1.640625 C 0.820312 -2.203125 0.6875 -2.863281 0.6875 -3.625 C 0.6875 -4.382812 0.820312 -5.046875 1.09375 -5.609375 C 1.375 -6.179688 1.765625 -6.625 2.265625 -6.9375 C 2.765625 -7.257812 3.34375 -7.421875 4 -7.421875 C 4.5 -7.421875 4.945312 -7.328125 5.34375 -7.140625 C 5.75 -6.960938 6.097656 -6.710938 6.390625 -6.390625 C 6.640625 -6.492188 6.800781 -6.675781 6.875 -6.9375 C 6.945312 -7.195312 6.984375 -7.507812 6.984375 -7.875 Z M 4 -0.859375 C 4.5 -0.859375 4.910156 -0.984375 5.234375 -1.234375 C 5.566406 -1.492188 5.8125 -1.832031 5.96875 -2.25 C 6.125 -2.675781 6.203125 -3.132812 6.203125 -3.625 C 6.203125 -4.113281 6.125 -4.566406 5.96875 -4.984375 C 5.8125 -5.410156 5.566406 -5.753906 5.234375 -6.015625 C 4.910156 -6.273438 4.5 -6.40625 4 -6.40625 C 3.5 -6.40625 3.085938 -6.273438 2.765625 -6.015625 C 2.441406 -5.753906 2.203125 -5.410156 2.046875 -4.984375 C 1.890625 -4.566406 1.8125 -4.113281 1.8125 -3.625 C 1.8125 -3.132812 1.890625 -2.675781 2.046875 -2.25 C 2.203125 -1.832031 2.441406 -1.492188 2.765625 -1.234375 C 3.085938 -0.984375 3.5 -0.859375 4 -0.859375 Z M 4 -0.859375 "/></g></g></g><g fill="#000000" fill-opacity="1"><g transform="translate(172.535479, 149.157189)"><g><path d="M 2.15625 -4.40625 L 2.15625 0 L 1.03125 0 L 1.03125 -7.328125 L 2.109375 -7.328125 L 2.109375 -6.171875 L 2.21875 -6.171875 C 2.382812 -6.546875 2.640625 -6.847656 2.984375 -7.078125 C 3.335938 -7.304688 3.789062 -7.421875 4.34375 -7.421875 C 5.082031 -7.421875 5.679688 -7.191406 6.140625 -6.734375 C 6.597656 -6.273438 6.828125 -5.582031 6.828125 -4.65625 L 6.828125 0 L 5.703125 0 L 5.703125 -4.578125 C 5.703125 -5.148438 5.550781 -5.597656 5.25 -5.921875 C 4.945312 -6.242188 4.535156 -6.40625 4.015625 -6.40625 C 3.484375 -6.40625 3.039062 -6.226562 2.6875 -5.875 C 2.332031 -5.53125 2.15625 -5.039062 2.15625 -4.40625 Z M 2.15625 -4.40625 "/></g></g></g><g fill="#000000" fill-opacity="1"><g transform="translate(180.392414, 149.157189)"><g/></g></g><g fill="#000000" fill-opacity="1"><g transform="translate(184.168325, 149.157189)"><g><path d="M 4.21875 -7.328125 L 4.21875 -6.375 L 2.65625 -6.375 L 2.65625 -2.09375 C 2.65625 -1.78125 2.703125 -1.546875 2.796875 -1.390625 C 2.890625 -1.234375 3.007812 -1.125 3.15625 -1.0625 C 3.300781 -1.007812 3.457031 -0.984375 3.625 -0.984375 C 3.75 -0.984375 3.847656 -0.988281 3.921875 -1 C 4.003906 -1.019531 4.070312 -1.035156 4.125 -1.046875 L 4.34375 -0.03125 C 4.269531 -0.0078125 4.164062 0.015625 4.03125 0.046875 C 3.894531 0.078125 3.722656 0.09375 3.515625 0.09375 C 3.191406 0.09375 2.878906 0.0234375 2.578125 -0.109375 C 2.273438 -0.242188 2.023438 -0.453125 1.828125 -0.734375 C 1.628906 -1.015625 1.53125 -1.367188 1.53125 -1.796875 L 1.53125 -6.375 L 0.421875 -6.375 L 0.421875 -7.328125 L 1.53125 -7.328125 L 1.53125 -9.078125 L 2.65625 -9.078125 L 2.65625 -7.328125 Z M 4.21875 -7.328125 "/></g></g></g><g fill="#000000" fill-opacity="1"><g transform="translate(189.050304, 149.157189)"><g><path d="M 4 0.15625 C 3.34375 0.15625 2.765625 0 2.265625 -0.3125 C 1.765625 -0.632812 1.375 -1.078125 1.09375 -1.640625 C 0.820312 -2.203125 0.6875 -2.863281 0.6875 -3.625 C 0.6875 -4.382812 0.820312 -5.046875 1.09375 -5.609375 C 1.375 -6.179688 1.765625 -6.625 2.265625 -6.9375 C 2.765625 -7.257812 3.34375 -7.421875 4 -7.421875 C 4.664062 -7.421875 5.242188 -7.257812 5.734375 -6.9375 C 6.234375 -6.625 6.625 -6.179688 6.90625 -5.609375 C 7.1875 -5.046875 7.328125 -4.382812 7.328125 -3.625 C 7.328125 -2.863281 7.1875 -2.203125 6.90625 -1.640625 C 6.625 -1.078125 6.234375 -0.632812 5.734375 -0.3125 C 5.242188 0 4.664062 0.15625 4 0.15625 Z M 4 -0.859375 C 4.5 -0.859375 4.910156 -0.984375 5.234375 -1.234375 C 5.566406 -1.492188 5.8125 -1.832031 5.96875 -2.25 C 6.125 -2.675781 6.203125 -3.132812 6.203125 -3.625 C 6.203125 -4.113281 6.125 -4.566406 5.96875 -4.984375 C 5.8125 -5.410156 5.566406 -5.753906 5.234375 -6.015625 C 4.910156 -6.273438 4.5 -6.40625 4 -6.40625 C 3.5 -6.40625 3.085938 -6.273438 2.765625 -6.015625 C 2.441406 -5.753906 2.203125 -5.410156 2.046875 -4.984375 C 1.890625 -4.566406 1.8125 -4.113281 1.8125 -3.625 C 1.8125 -3.132812 1.890625 -2.675781 2.046875 -2.25 C 2.203125 -1.832031 2.441406 -1.492188 2.765625 -1.234375 C 3.085938 -0.984375 3.5 -0.859375 4 -0.859375 Z M 1.25 -8.21875 L 3.1875 -9.953125 L 4.234375 -9.953125 L 6.1875 -8.21875 L 4.8125 -8.21875 L 3.71875 -9.234375 L 2.640625 -8.21875 Z M 5.671875 -9.375 L 6.609375 -11.09375 L 8 -11.09375 L 6.65625 -9.375 Z M 5.671875 -9.375 "/></g></g></g><g fill="#000000" fill-opacity="1"><g transform="translate(197.059801, 149.157189)"><g><path d="M 1.03125 0 L 1.03125 -7.328125 L 2.15625 -7.328125 L 2.15625 0 Z M 1.59375 -8.546875 C 1.375 -8.546875 1.1875 -8.617188 1.03125 -8.765625 C 0.875 -8.910156 0.796875 -9.085938 0.796875 -9.296875 C 0.796875 -9.515625 0.875 -9.695312 1.03125 -9.84375 C 1.1875 -9.988281 1.375 -10.0625 1.59375 -10.0625 C 1.820312 -10.0625 2.015625 -9.988281 2.171875 -9.84375 C 2.328125 -9.695312 2.40625 -9.515625 2.40625 -9.296875 C 2.40625 -9.085938 2.328125 -8.910156 2.171875 -8.765625 C 2.015625 -8.617188 1.820312 -8.546875 1.59375 -8.546875 Z M 1.59375 -8.546875 "/></g></g></g><g fill="#000000" fill-opacity="1"><g transform="translate(200.244526, 149.157189)"><g/></g></g><g fill="#000000" fill-opacity="1"><g transform="translate(204.020438, 149.157189)"><g><path d="M 4.21875 -7.328125 L 4.21875 -6.375 L 2.65625 -6.375 L 2.65625 -2.09375 C 2.65625 -1.78125 2.703125 -1.546875 2.796875 -1.390625 C 2.890625 -1.234375 3.007812 -1.125 3.15625 -1.0625 C 3.300781 -1.007812 3.457031 -0.984375 3.625 -0.984375 C 3.75 -0.984375 3.847656 -0.988281 3.921875 -1 C 4.003906 -1.019531 4.070312 -1.035156 4.125 -1.046875 L 4.34375 -0.03125 C 4.269531 -0.0078125 4.164062 0.015625 4.03125 0.046875 C 3.894531 0.078125 3.722656 0.09375 3.515625 0.09375 C 3.191406 0.09375 2.878906 0.0234375 2.578125 -0.109375 C 2.273438 -0.242188 2.023438 -0.453125 1.828125 -0.734375 C 1.628906 -1.015625 1.53125 -1.367188 1.53125 -1.796875 L 1.53125 -6.375 L 0.421875 -6.375 L 0.421875 -7.328125 L 1.53125 -7.328125 L 1.53125 -9.078125 L 2.65625 -9.078125 L 2.65625 -7.328125 Z M 4.21875 -7.328125 "/></g></g></g><g fill="#000000" fill-opacity="1"><g transform="translate(208.902417, 149.157189)"><g><path d="M 2.15625 -4.40625 L 2.15625 0 L 1.03125 0 L 1.03125 -9.765625 L 2.15625 -9.765625 L 2.15625 -6.171875 L 2.25 -6.171875 C 2.414062 -6.554688 2.671875 -6.859375 3.015625 -7.078125 C 3.367188 -7.304688 3.832031 -7.421875 4.40625 -7.421875 C 5.15625 -7.421875 5.757812 -7.191406 6.21875 -6.734375 C 6.675781 -6.285156 6.90625 -5.59375 6.90625 -4.65625 L 6.90625 0 L 5.78125 0 L 5.78125 -4.578125 C 5.78125 -5.160156 5.628906 -5.609375 5.328125 -5.921875 C 5.023438 -6.242188 4.609375 -6.40625 4.078125 -6.40625 C 3.523438 -6.40625 3.066406 -6.226562 2.703125 -5.875 C 2.335938 -5.53125 2.15625 -5.039062 2.15625 -4.40625 Z M 2.15625 -4.40625 "/></g></g></g><g fill="#000000" fill-opacity="1"><g transform="translate(216.835633, 149.157189)"><g><path d="M 1.03125 0 L 1.03125 -7.328125 L 2.15625 -7.328125 L 2.15625 0 Z M 1.59375 -8.546875 C 1.375 -8.546875 1.1875 -8.617188 1.03125 -8.765625 C 0.875 -8.910156 0.796875 -9.085938 0.796875 -9.296875 C 0.796875 -9.515625 0.875 -9.695312 1.03125 -9.84375 C 1.1875 -9.988281 1.375 -10.0625 1.59375 -10.0625 C 1.820312 -10.0625 2.015625 -9.988281 2.171875 -9.84375 C 2.328125 -9.695312 2.40625 -9.515625 2.40625 -9.296875 C 2.40625 -9.085938 2.328125 -8.910156 2.171875 -8.765625 C 2.015625 -8.617188 1.820312 -8.546875 1.59375 -8.546875 Z M 1.59375 -8.546875 "/></g></g></g><g fill="#000000" fill-opacity="1"><g transform="translate(220.020358, 149.157189)"><g><path d="M 4.09375 0.15625 C 3.394531 0.15625 2.789062 0 2.28125 -0.3125 C 1.769531 -0.625 1.375 -1.0625 1.09375 -1.625 C 0.820312 -2.195312 0.6875 -2.859375 0.6875 -3.609375 C 0.6875 -4.359375 0.820312 -5.019531 1.09375 -5.59375 C 1.375 -6.164062 1.757812 -6.613281 2.25 -6.9375 C 2.75 -7.257812 3.328125 -7.421875 3.984375 -7.421875 C 4.367188 -7.421875 4.742188 -7.351562 5.109375 -7.21875 C 5.484375 -7.09375 5.820312 -6.890625 6.125 -6.609375 C 6.4375 -6.328125 6.679688 -5.953125 6.859375 -5.484375 C 7.035156 -5.015625 7.125 -4.4375 7.125 -3.75 L 7.125 -3.28125 L 1.8125 -3.28125 C 1.84375 -2.5 2.066406 -1.898438 2.484375 -1.484375 C 2.898438 -1.066406 3.4375 -0.859375 4.09375 -0.859375 C 4.539062 -0.859375 4.921875 -0.953125 5.234375 -1.140625 C 5.554688 -1.335938 5.785156 -1.625 5.921875 -2 L 7.015625 -1.703125 C 6.847656 -1.148438 6.503906 -0.703125 5.984375 -0.359375 C 5.472656 -0.015625 4.84375 0.15625 4.09375 0.15625 Z M 1.8125 -4.25 L 5.984375 -4.25 C 5.984375 -4.875 5.800781 -5.390625 5.4375 -5.796875 C 5.082031 -6.203125 4.597656 -6.40625 3.984375 -6.40625 C 3.554688 -6.40625 3.179688 -6.304688 2.859375 -6.109375 C 2.546875 -5.910156 2.300781 -5.644531 2.125 -5.3125 C 1.945312 -4.976562 1.84375 -4.625 1.8125 -4.25 Z M 4.75 -9.953125 L 6.5625 -8.21875 L 5.390625 -8.21875 L 4.09375 -9.421875 L 2.8125 -8.21875 L 1.625 -8.21875 L 3.4375 -9.953125 Z M 6.75 -9.125 L 5.953125 -9.125 L 5.953125 -10.015625 C 6.222656 -10.023438 6.421875 -10.054688 6.546875 -10.109375 C 6.671875 -10.160156 6.734375 -10.257812 6.734375 -10.40625 C 6.734375 -10.5625 6.648438 -10.671875 6.484375 -10.734375 C 6.316406 -10.796875 6.101562 -10.828125 5.84375 -10.828125 L 5.875 -11.453125 C 6.445312 -11.453125 6.878906 -11.351562 7.171875 -11.15625 C 7.460938 -10.96875 7.609375 -10.710938 7.609375 -10.390625 C 7.609375 -10.109375 7.519531 -9.898438 7.34375 -9.765625 C 7.175781 -9.640625 6.976562 -9.5625 6.75 -9.53125 Z M 6.75 -9.125 "/></g></g></g><g fill="#000000" fill-opacity="1"><g transform="translate(227.839158, 149.157189)"><g><path d="M 5.640625 -3 L 5.640625 -7.328125 L 6.765625 -7.328125 L 6.765625 0 L 5.640625 0 L 5.640625 -1.234375 L 5.5625 -1.234375 C 5.394531 -0.867188 5.128906 -0.554688 4.765625 -0.296875 C 4.398438 -0.0351562 3.941406 0.09375 3.390625 0.09375 C 2.703125 0.09375 2.132812 -0.128906 1.6875 -0.578125 C 1.25 -1.035156 1.03125 -1.734375 1.03125 -2.671875 L 1.03125 -7.328125 L 2.15625 -7.328125 L 2.15625 -2.75 C 2.15625 -2.207031 2.304688 -1.773438 2.609375 -1.453125 C 2.910156 -1.140625 3.289062 -0.984375 3.75 -0.984375 C 4.03125 -0.984375 4.316406 -1.054688 4.609375 -1.203125 C 4.898438 -1.347656 5.144531 -1.566406 5.34375 -1.859375 C 5.539062 -2.160156 5.640625 -2.539062 5.640625 -3 Z M 5.640625 -3 "/></g></g></g><g fill="#000000" fill-opacity="1"><g transform="translate(235.638885, 149.157189)"><g/></g></g><g fill="#000000" fill-opacity="1"><g transform="translate(239.414797, 149.157189)"><g><path d="M 4.140625 -9.765625 L 4.140625 0 L 2.953125 0 L 2.953125 -8.046875 L 2.875 -8.046875 C 2.832031 -7.953125 2.71875 -7.847656 2.53125 -7.734375 C 2.351562 -7.628906 2.113281 -7.535156 1.8125 -7.453125 C 1.519531 -7.367188 1.1875 -7.328125 0.8125 -7.328125 L 0.8125 -8.3125 C 1.195312 -8.3125 1.523438 -8.378906 1.796875 -8.515625 C 2.078125 -8.648438 2.3125 -8.8125 2.5 -9 C 2.6875 -9.1875 2.828125 -9.351562 2.921875 -9.5 C 3.015625 -9.644531 3.070312 -9.734375 3.09375 -9.765625 Z M 4.140625 -9.765625 "/></g></g></g><g fill="#000000" fill-opacity="1"><g transform="translate(245.345636, 149.157189)"><g><path d="M 4.1875 0.140625 C 3.113281 0.140625 2.28125 -0.296875 1.6875 -1.171875 C 1.09375 -2.046875 0.796875 -3.28125 0.796875 -4.875 C 0.796875 -6.457031 1.09375 -7.6875 1.6875 -8.5625 C 2.289062 -9.445312 3.125 -9.890625 4.1875 -9.890625 C 5.257812 -9.890625 6.09375 -9.445312 6.6875 -8.5625 C 7.289062 -7.6875 7.59375 -6.457031 7.59375 -4.875 C 7.59375 -3.28125 7.296875 -2.046875 6.703125 -1.171875 C 6.109375 -0.296875 5.269531 0.140625 4.1875 0.140625 Z M 4.1875 -0.921875 C 4.90625 -0.921875 5.457031 -1.257812 5.84375 -1.9375 C 6.238281 -2.625 6.4375 -3.601562 6.4375 -4.875 C 6.4375 -6.144531 6.238281 -7.125 5.84375 -7.8125 C 5.445312 -8.507812 4.894531 -8.859375 4.1875 -8.859375 C 3.488281 -8.859375 2.9375 -8.507812 2.53125 -7.8125 C 2.132812 -7.125 1.9375 -6.144531 1.9375 -4.875 C 1.9375 -3.601562 2.132812 -2.625 2.53125 -1.9375 C 2.925781 -1.257812 3.476562 -0.921875 4.1875 -0.921875 Z M 4.1875 -0.921875 "/></g></g></g><g fill="#000000" fill-opacity="1"><g transform="translate(253.736537, 149.157189)"><g><path d="M 4.1875 0.140625 C 3.113281 0.140625 2.28125 -0.296875 1.6875 -1.171875 C 1.09375 -2.046875 0.796875 -3.28125 0.796875 -4.875 C 0.796875 -6.457031 1.09375 -7.6875 1.6875 -8.5625 C 2.289062 -9.445312 3.125 -9.890625 4.1875 -9.890625 C 5.257812 -9.890625 6.09375 -9.445312 6.6875 -8.5625 C 7.289062 -7.6875 7.59375 -6.457031 7.59375 -4.875 C 7.59375 -3.28125 7.296875 -2.046875 6.703125 -1.171875 C 6.109375 -0.296875 5.269531 0.140625 4.1875 0.140625 Z M 4.1875 -0.921875 C 4.90625 -0.921875 5.457031 -1.257812 5.84375 -1.9375 C 6.238281 -2.625 6.4375 -3.601562 6.4375 -4.875 C 6.4375 -6.144531 6.238281 -7.125 5.84375 -7.8125 C 5.445312 -8.507812 4.894531 -8.859375 4.1875 -8.859375 C 3.488281 -8.859375 2.9375 -8.507812 2.53125 -7.8125 C 2.132812 -7.125 1.9375 -6.144531 1.9375 -4.875 C 1.9375 -3.601562 2.132812 -2.625 2.53125 -1.9375 C 2.925781 -1.257812 3.476562 -0.921875 4.1875 -0.921875 Z M 4.1875 -0.921875 "/></g></g></g><g fill="#000000" fill-opacity="1"><g transform="translate(262.127438, 149.157189)"><g><path d="M 4.1875 0.140625 C 3.113281 0.140625 2.28125 -0.296875 1.6875 -1.171875 C 1.09375 -2.046875 0.796875 -3.28125 0.796875 -4.875 C 0.796875 -6.457031 1.09375 -7.6875 1.6875 -8.5625 C 2.289062 -9.445312 3.125 -9.890625 4.1875 -9.890625 C 5.257812 -9.890625 6.09375 -9.445312 6.6875 -8.5625 C 7.289062 -7.6875 7.59375 -6.457031 7.59375 -4.875 C 7.59375 -3.28125 7.296875 -2.046875 6.703125 -1.171875 C 6.109375 -0.296875 5.269531 0.140625 4.1875 0.140625 Z M 4.1875 -0.921875 C 4.90625 -0.921875 5.457031 -1.257812 5.84375 -1.9375 C 6.238281 -2.625 6.4375 -3.601562 6.4375 -4.875 C 6.4375 -6.144531 6.238281 -7.125 5.84375 -7.8125 C 5.445312 -8.507812 4.894531 -8.859375 4.1875 -8.859375 C 3.488281 -8.859375 2.9375 -8.507812 2.53125 -7.8125 C 2.132812 -7.125 1.9375 -6.144531 1.9375 -4.875 C 1.9375 -3.601562 2.132812 -2.625 2.53125 -1.9375 C 2.925781 -1.257812 3.476562 -0.921875 4.1875 -0.921875 Z M 4.1875 -0.921875 "/></g></g></g><g fill="#000000" fill-opacity="1"><g transform="translate(270.51834, 149.157189)"><g><path d="M 1.03125 0 L 1.03125 -9.765625 L 2.15625 -9.765625 L 2.15625 -4.0625 L 2.28125 -4.0625 L 5.484375 -7.328125 L 6.875 -7.328125 L 3.796875 -4.1875 L 7.109375 0 L 5.6875 0 L 2.9375 -3.46875 L 2.15625 -2.734375 L 2.15625 0 Z M 1.03125 0 "/></g></g></g></svg>