<svg xmlns="http://www.w3.org/2000/svg" xmlns:xlink="http://www.w3.org/1999/xlink" width="150" zoomAndPan="magnify" viewBox="0 0 112.5 112.499997" height="150" preserveAspectRatio="xMidYMid meet" version="1.0"><defs><g/><clipPath id="718d4d1836"><path d="M 32 34.992188 L 51 34.992188 L 51 54 L 32 54 Z M 32 34.992188 " clip-rule="nonzero"/></clipPath><clipPath id="5953dd866f"><path d="M 30 40 L 45 40 L 45 56.742188 L 30 56.742188 Z M 30 40 " clip-rule="nonzero"/></clipPath></defs><g clip-path="url(#718d4d1836)"><path fill="#000000" d="M 39.222656 53.042969 C 38.328125 53.046875 37.464844 52.882812 36.632812 52.550781 C 36.503906 52.5 36.414062 52.410156 36.359375 52.28125 C 36.304688 52.152344 36.304688 52.023438 36.355469 51.894531 C 36.40625 51.765625 36.496094 51.671875 36.625 51.617188 C 36.753906 51.5625 36.882812 51.5625 37.011719 51.613281 C 38.894531 52.375 41.195312 52.085938 43.84375 50.753906 C 49.382812 47.964844 49.640625 39.839844 49.527344 36.757812 C 48.8125 37.238281 47.558594 37.636719 45.371094 37.390625 C 42.96875 37.113281 36.9375 38.613281 34.453125 42.328125 C 33.046875 44.429688 33.082031 46.871094 34.558594 49.578125 C 34.667969 49.761719 34.792969 49.933594 34.929688 50.097656 C 35.019531 50.203125 35.058594 50.328125 35.042969 50.464844 C 35.03125 50.605469 34.972656 50.71875 34.863281 50.808594 C 34.757812 50.898438 34.636719 50.9375 34.496094 50.921875 C 34.359375 50.910156 34.242188 50.851562 34.15625 50.742188 C 33.972656 50.53125 33.8125 50.300781 33.675781 50.058594 C 32.027344 47.039062 32.003906 44.171875 33.613281 41.765625 C 36.363281 37.660156 42.800781 36.078125 45.484375 36.382812 C 48.957031 36.777344 49.457031 35.390625 49.460938 35.378906 C 49.492188 35.261719 49.554688 35.164062 49.652344 35.09375 C 49.75 35.019531 49.863281 34.988281 49.984375 34.992188 C 50.105469 35 50.210938 35.046875 50.296875 35.128906 C 50.386719 35.214844 50.4375 35.316406 50.453125 35.441406 C 50.511719 35.945312 51.78125 47.882812 44.296875 51.652344 C 42.714844 52.519531 41.023438 52.980469 39.222656 53.042969 Z M 39.222656 53.042969 " fill-opacity="1" fill-rule="nonzero"/></g><g clip-path="url(#5953dd866f)"><path fill="#000000" d="M 30.894531 56.742188 C 30.804688 56.742188 30.71875 56.71875 30.640625 56.675781 C 30.5625 56.628906 30.503906 56.570312 30.457031 56.492188 C 30.414062 56.414062 30.390625 56.328125 30.390625 56.238281 C 30.386719 56.148438 30.410156 56.066406 30.453125 55.988281 C 33.839844 50.039062 38.304688 45.066406 43.847656 41.066406 C 43.964844 40.992188 44.089844 40.96875 44.222656 41 C 44.359375 41.027344 44.464844 41.101562 44.539062 41.21875 C 44.613281 41.332031 44.636719 41.460938 44.609375 41.59375 C 44.582031 41.730469 44.511719 41.835938 44.398438 41.914062 C 38.988281 45.820312 34.632812 50.679688 31.332031 56.484375 C 31.234375 56.65625 31.089844 56.742188 30.894531 56.742188 Z M 30.894531 56.742188 " fill-opacity="1" fill-rule="nonzero"/></g><path fill="#000000" d="M 26.511719 51.90625 C 25.523438 51.875 24.597656 51.621094 23.730469 51.152344 C 19.644531 49.089844 20.328125 42.648438 20.359375 42.378906 C 20.375 42.257812 20.425781 42.152344 20.515625 42.070312 C 20.601562 41.984375 20.707031 41.9375 20.828125 41.929688 C 20.953125 41.921875 21.0625 41.957031 21.160156 42.027344 C 21.257812 42.101562 21.320312 42.195312 21.351562 42.3125 C 21.355469 42.3125 21.625 42.839844 23.1875 42.660156 C 24.648438 42.496094 28.160156 43.359375 29.660156 45.597656 C 30.285156 46.539062 30.792969 48.101562 29.636719 50.214844 C 29.558594 50.355469 29.464844 50.488281 29.359375 50.609375 C 29.273438 50.71875 29.15625 50.78125 29.019531 50.796875 C 28.878906 50.808594 28.753906 50.773438 28.644531 50.683594 C 28.539062 50.59375 28.476562 50.476562 28.464844 50.335938 C 28.453125 50.195312 28.492188 50.070312 28.585938 49.964844 C 28.648438 49.890625 28.703125 49.8125 28.753906 49.730469 C 29.484375 48.386719 29.507812 47.1875 28.820312 46.164062 C 27.617188 44.363281 24.558594 43.515625 23.300781 43.667969 C 22.621094 43.777344 21.960938 43.714844 21.316406 43.492188 C 21.296875 45.273438 21.59375 48.941406 24.183594 50.246094 C 25.515625 50.917969 26.660156 51.066406 27.582031 50.691406 C 27.710938 50.640625 27.839844 50.640625 27.96875 50.695312 C 28.09375 50.75 28.183594 50.84375 28.234375 50.972656 C 28.289062 51.101562 28.289062 51.230469 28.234375 51.359375 C 28.179688 51.484375 28.089844 51.578125 27.960938 51.628906 C 27.496094 51.816406 27.011719 51.910156 26.511719 51.90625 Z M 26.511719 51.90625 " fill-opacity="1" fill-rule="nonzero"/><path fill="#000000" d="M 30.894531 53.855469 C 30.695312 53.855469 30.550781 53.769531 30.453125 53.597656 C 28.734375 50.574219 26.46875 48.042969 23.652344 46.011719 C 23.539062 45.933594 23.464844 45.828125 23.4375 45.691406 C 23.40625 45.554688 23.429688 45.425781 23.507812 45.308594 C 23.582031 45.191406 23.6875 45.121094 23.824219 45.089844 C 23.960938 45.0625 24.089844 45.085938 24.203125 45.164062 C 27.167969 47.277344 29.542969 49.925781 31.332031 53.101562 C 31.375 53.179688 31.398438 53.261719 31.394531 53.351562 C 31.394531 53.441406 31.371094 53.527344 31.328125 53.601562 C 31.28125 53.679688 31.21875 53.742188 31.144531 53.785156 C 31.066406 53.832031 30.980469 53.855469 30.894531 53.855469 Z M 30.894531 53.855469 " fill-opacity="1" fill-rule="nonzero"/><g fill="#000000" fill-opacity="1"><g transform="translate(27.624151, 67.914288)"><g><path d="M 1.648438 -0.300781 C 1.648438 -0.101562 1.75 0 1.945312 0 L 2.9375 0 C 3.15625 0 3.277344 -0.0859375 3.277344 -0.300781 L 3.277344 -13.589844 C 3.277344 -13.777344 3.117188 -13.890625 2.9375 -13.890625 L 1.945312 -13.890625 C 1.761719 -13.890625 1.648438 -13.769531 1.648438 -13.589844 Z M 1.648438 -0.300781 "/></g></g></g><g fill="#000000" fill-opacity="1"><g transform="translate(32.454198, 67.914288)"><g/></g></g><g fill="#000000" fill-opacity="1"><g transform="translate(38.32327, 67.914288)"><g><path d="M 7.375 -0.207031 C 7.386719 -0.214844 7.394531 -0.234375 7.394531 -0.261719 L 9.25 -4.765625 L 11.121094 -0.28125 L 11.101562 -0.300781 C 11.148438 -0.195312 11.175781 0 11.511719 0 L 12.148438 0 C 12.441406 0 12.488281 -0.140625 12.523438 -0.242188 L 12.523438 -0.214844 C 12.523438 -0.226562 12.542969 -0.234375 12.542969 -0.261719 L 17.992188 -13.460938 C 17.992188 -13.527344 18.027344 -13.621094 18.027344 -13.683594 C 18.027344 -13.824219 17.917969 -13.890625 17.691406 -13.890625 L 16.699219 -13.890625 C 16.484375 -13.890625 16.363281 -13.789062 16.289062 -13.609375 L 16.289062 -13.628906 C 15.546875 -11.699219 12.476562 -4.035156 11.832031 -2.488281 C 11.558594 -3.136719 10.859375 -4.839844 10.082031 -6.769531 L 12.84375 -13.460938 C 12.871094 -13.527344 12.878906 -13.621094 12.878906 -13.683594 C 12.878906 -13.824219 12.777344 -13.890625 12.5625 -13.890625 L 5.933594 -13.890625 C 5.71875 -13.890625 5.617188 -13.824219 5.617188 -13.683594 C 5.617188 -13.601562 5.617188 -13.542969 5.625 -13.515625 C 5.625 -13.488281 5.625 -13.46875 5.636719 -13.460938 L 8.425781 -6.757812 C 7.648438 -4.839844 6.953125 -3.136719 6.703125 -2.488281 C 6.046875 -4.042969 2.929688 -11.699219 2.191406 -13.628906 C 2.125 -13.777344 2.011719 -13.890625 1.796875 -13.890625 L 0.785156 -13.890625 C 0.570312 -13.890625 0.46875 -13.824219 0.46875 -13.683594 C 0.46875 -13.621094 0.476562 -13.5625 0.488281 -13.515625 C 0.496094 -13.488281 0.496094 -13.46875 0.503906 -13.460938 L 5.992188 -0.28125 L 5.972656 -0.300781 C 6.019531 -0.195312 6.046875 0 6.382812 0 L 7 0 C 7.265625 0 7.328125 -0.101562 7.375 -0.207031 Z M 9.25 -8.816406 C 8.675781 -10.230469 8.132812 -11.578125 7.75 -12.5625 L 10.746094 -12.5625 Z M 7.375 -0.207031 C 7.375 -0.207031 7.386719 -0.214844 7.394531 -0.242188 Z M 7.375 -0.207031 "/></g></g></g><g fill="#000000" fill-opacity="1"><g transform="translate(56.726134, 67.914288)"><g><path d="M 12.863281 0 C 13.085938 0 13.199219 -0.0742188 13.199219 -0.234375 C 13.199219 -0.261719 13.179688 -0.308594 13.171875 -0.375 L 13.152344 -0.46875 L 13.160156 -0.457031 C 11.355469 -4.839844 9.25 -9.21875 7.449219 -13.609375 C 7.394531 -13.695312 7.414062 -13.902344 7.046875 -13.902344 L 6.984375 -13.902344 C 6.675781 -13.902344 6.628906 -13.75 6.582031 -13.648438 L 0.804688 -0.457031 C 0.796875 -0.449219 0.796875 -0.429688 0.785156 -0.402344 C 0.777344 -0.375 0.777344 -0.316406 0.777344 -0.234375 C 0.777344 -0.0742188 0.890625 0 1.125 0 Z M 7 -10.886719 L 10.914062 -1.648438 L 3.0625 -1.648438 Z M 7 -10.886719 "/></g></g></g><g fill="#000000" fill-opacity="1"><g transform="translate(70.355108, 67.914288)"><g><path d="M 13.03125 0 C 13.265625 0 13.386719 -0.101562 13.386719 -0.300781 L 13.386719 -13.589844 C 13.386719 -13.777344 13.207031 -13.890625 13.03125 -13.890625 L 12.074219 -13.890625 C 11.917969 -13.890625 11.8125 -13.816406 11.777344 -13.667969 L 11.777344 -2.695312 L 3.464844 -13.742188 C 3.386719 -13.84375 3.285156 -13.890625 3.164062 -13.890625 L 1.890625 -13.890625 C 1.703125 -13.890625 1.574219 -13.761719 1.574219 -13.574219 L 1.574219 -0.253906 C 1.582031 -0.0859375 1.675781 0 1.871094 0 Z M 3.183594 -1.609375 L 3.183594 -10.539062 L 3.164062 -10.539062 L 3.164062 -11.570312 L 10.585938 -1.609375 Z M 3.183594 -1.609375 "/></g></g></g><g fill="#000000" fill-opacity="1"><g transform="translate(41.604614, 75.791246)"><g><path d="M 4.363281 -1.296875 L 3.882812 -1.296875 C 3.730469 -1.023438 3.527344 -0.796875 3.265625 -0.636719 C 3 -0.46875 2.707031 -0.386719 2.394531 -0.386719 C 1.929688 -0.386719 1.527344 -0.554688 1.199219 -0.90625 C 0.875 -1.234375 0.71875 -1.640625 0.71875 -2.117188 C 0.71875 -2.589844 0.875 -2.996094 1.199219 -3.332031 C 1.347656 -3.488281 1.527344 -3.613281 1.734375 -3.707031 C 1.933594 -3.800781 2.132812 -3.851562 2.332031 -3.851562 C 2.527344 -3.851562 2.695312 -3.824219 2.84375 -3.78125 C 3.300781 -3.644531 3.644531 -3.371094 3.875 -2.953125 L 4.355469 -2.953125 C 4.195312 -3.351562 3.9375 -3.675781 3.582031 -3.925781 C 3.21875 -4.175781 2.828125 -4.300781 2.394531 -4.300781 C 1.804688 -4.300781 1.304688 -4.082031 0.890625 -3.652344 C 0.699219 -3.449219 0.550781 -3.214844 0.441406 -2.953125 C 0.332031 -2.691406 0.28125 -2.410156 0.28125 -2.117188 C 0.28125 -1.515625 0.480469 -1.011719 0.890625 -0.585938 C 1.304688 -0.148438 1.804688 0.0625 2.394531 0.0625 C 2.828125 0.0625 3.21875 -0.0625 3.589844 -0.3125 C 3.945312 -0.5625 4.199219 -0.886719 4.363281 -1.296875 Z M 4.363281 -1.296875 "/></g></g></g><g fill="#000000" fill-opacity="1"><g transform="translate(47.751407, 75.791246)"><g><path d="M 4.207031 -2.132812 C 4.207031 -1.648438 4.03125 -1.234375 3.695312 -0.898438 C 3.351562 -0.554688 2.9375 -0.386719 2.457031 -0.386719 C 1.976562 -0.386719 1.566406 -0.554688 1.230469 -0.898438 C 0.886719 -1.234375 0.71875 -1.648438 0.71875 -2.132812 C 0.71875 -2.609375 0.886719 -3.019531 1.230469 -3.363281 C 1.566406 -3.699219 1.976562 -3.875 2.457031 -3.875 C 2.9375 -3.875 3.351562 -3.699219 3.695312 -3.363281 C 4.03125 -3.019531 4.207031 -2.609375 4.207031 -2.132812 Z M 4.644531 -2.132812 C 4.644531 -2.433594 4.582031 -2.714844 4.46875 -2.984375 C 4.355469 -3.246094 4.199219 -3.476562 4 -3.675781 C 3.800781 -3.867188 3.570312 -4.023438 3.308594 -4.136719 C 3.039062 -4.25 2.757812 -4.3125 2.457031 -4.3125 C 2.160156 -4.3125 1.871094 -4.25 1.609375 -4.136719 C 1.347656 -4.023438 1.117188 -3.867188 0.917969 -3.675781 C 0.71875 -3.476562 0.5625 -3.246094 0.449219 -2.984375 C 0.335938 -2.714844 0.28125 -2.433594 0.28125 -2.132812 C 0.28125 -1.835938 0.335938 -1.546875 0.449219 -1.285156 C 0.5625 -1.015625 0.71875 -0.785156 0.917969 -0.585938 C 1.117188 -0.386719 1.347656 -0.230469 1.609375 -0.117188 C 1.871094 -0.0078125 2.160156 0.0507812 2.457031 0.0507812 C 2.757812 0.0507812 3.039062 -0.0078125 3.308594 -0.117188 C 3.570312 -0.230469 3.800781 -0.386719 4 -0.585938 C 4.199219 -0.785156 4.355469 -1.015625 4.46875 -1.285156 C 4.582031 -1.546875 4.644531 -1.835938 4.644531 -2.132812 Z M 4.644531 -2.132812 "/></g></g></g><g fill="#000000" fill-opacity="1"><g transform="translate(54.272625, 75.791246)"><g><path d="M 1.640625 -1.996094 C 2.191406 -1.867188 2.566406 -1.722656 2.765625 -1.558594 C 2.902344 -1.449219 2.96875 -1.304688 2.96875 -1.128906 C 2.96875 -0.953125 2.933594 -0.8125 2.859375 -0.710938 C 2.671875 -0.449219 2.332031 -0.316406 1.859375 -0.316406 C 1.199219 -0.316406 0.824219 -0.542969 0.742188 -0.992188 L 0.230469 -0.992188 C 0.378906 -0.273438 0.921875 0.0820312 1.859375 0.0820312 C 2.277344 0.0820312 2.628906 -0.0078125 2.90625 -0.195312 C 3.246094 -0.410156 3.417969 -0.738281 3.417969 -1.160156 C 3.417969 -1.511719 3.28125 -1.777344 3.007812 -1.964844 C 2.8125 -2.101562 2.503906 -2.226562 2.070312 -2.339844 C 1.636719 -2.453125 1.355469 -2.546875 1.222656 -2.613281 C 0.9375 -2.757812 0.792969 -2.957031 0.796875 -3.21875 C 0.796875 -3.355469 0.824219 -3.476562 0.886719 -3.5625 C 1.046875 -3.804688 1.335938 -3.929688 1.746094 -3.929688 C 2.328125 -3.929688 2.660156 -3.746094 2.746094 -3.382812 L 3.21875 -3.382812 C 3.0625 -3.992188 2.570312 -4.304688 1.746094 -4.304688 C 1.371094 -4.304688 1.042969 -4.207031 0.765625 -4.007812 C 0.488281 -3.804688 0.34375 -3.511719 0.34375 -3.113281 C 0.34375 -2.570312 0.78125 -2.195312 1.640625 -1.996094 Z M 1.640625 -1.996094 "/></g></g></g><g fill="#000000" fill-opacity="1"><g transform="translate(59.452159, 75.791246)"><g><path d="M 4.378906 0 L 4.824219 0 L 3.835938 -4.523438 L 2.445312 -0.890625 L 1.054688 -4.523438 L 0.0625 0 L 0.511719 0 L 1.167969 -3.019531 L 2.445312 0.25 L 3.71875 -3.019531 Z M 4.378906 0 "/></g></g></g><g fill="#000000" fill-opacity="1"><g transform="translate(65.935938, 75.791246)"><g><path d="M 2.988281 0 L 2.988281 -0.40625 L 0.90625 -0.40625 L 0.90625 -1.914062 L 2.925781 -1.914062 L 2.925781 -2.328125 L 0.90625 -2.328125 L 0.90625 -3.835938 L 2.988281 -3.835938 L 2.988281 -4.242188 L 0.46875 -4.242188 L 0.46875 0 Z M 2.988281 0 "/></g></g></g><g fill="#000000" fill-opacity="1"><g transform="translate(70.990661, 75.791246)"><g><path d="M 0.125 -3.851562 L 1.15625 -3.851562 L 1.15625 -0.0117188 L 1.589844 -0.0117188 L 1.589844 -3.851562 L 2.621094 -3.851562 L 2.621094 -4.257812 L 0.125 -4.257812 Z M 0.125 -3.851562 "/></g></g></g><g fill="#000000" fill-opacity="1"><g transform="translate(75.333977, 75.791246)"><g><path d="M 0.90625 0 L 0.90625 -4.242188 L 0.46875 -4.242188 L 0.46875 0 Z M 0.90625 0 "/></g></g></g><g fill="#000000" fill-opacity="1"><g transform="translate(78.304406, 75.791246)"><g><path d="M 4.363281 -1.296875 L 3.882812 -1.296875 C 3.730469 -1.023438 3.527344 -0.796875 3.265625 -0.636719 C 3 -0.46875 2.707031 -0.386719 2.394531 -0.386719 C 1.929688 -0.386719 1.527344 -0.554688 1.199219 -0.90625 C 0.875 -1.234375 0.71875 -1.640625 0.71875 -2.117188 C 0.71875 -2.589844 0.875 -2.996094 1.199219 -3.332031 C 1.347656 -3.488281 1.527344 -3.613281 1.734375 -3.707031 C 1.933594 -3.800781 2.132812 -3.851562 2.332031 -3.851562 C 2.527344 -3.851562 2.695312 -3.824219 2.84375 -3.78125 C 3.300781 -3.644531 3.644531 -3.371094 3.875 -2.953125 L 4.355469 -2.953125 C 4.195312 -3.351562 3.9375 -3.675781 3.582031 -3.925781 C 3.21875 -4.175781 2.828125 -4.300781 2.394531 -4.300781 C 1.804688 -4.300781 1.304688 -4.082031 0.890625 -3.652344 C 0.699219 -3.449219 0.550781 -3.214844 0.441406 -2.953125 C 0.332031 -2.691406 0.28125 -2.410156 0.28125 -2.117188 C 0.28125 -1.515625 0.480469 -1.011719 0.890625 -0.585938 C 1.304688 -0.148438 1.804688 0.0625 2.394531 0.0625 C 2.828125 0.0625 3.21875 -0.0625 3.589844 -0.3125 C 3.945312 -0.5625 4.199219 -0.886719 4.363281 -1.296875 Z M 4.363281 -1.296875 "/></g></g></g><g fill="#000000" fill-opacity="1"><g transform="translate(84.451198, 75.791246)"><g><path d="M 1.640625 -1.996094 C 2.191406 -1.867188 2.566406 -1.722656 2.765625 -1.558594 C 2.902344 -1.449219 2.96875 -1.304688 2.96875 -1.128906 C 2.96875 -0.953125 2.933594 -0.8125 2.859375 -0.710938 C 2.671875 -0.449219 2.332031 -0.316406 1.859375 -0.316406 C 1.199219 -0.316406 0.824219 -0.542969 0.742188 -0.992188 L 0.230469 -0.992188 C 0.378906 -0.273438 0.921875 0.0820312 1.859375 0.0820312 C 2.277344 0.0820312 2.628906 -0.0078125 2.90625 -0.195312 C 3.246094 -0.410156 3.417969 -0.738281 3.417969 -1.160156 C 3.417969 -1.511719 3.28125 -1.777344 3.007812 -1.964844 C 2.8125 -2.101562 2.503906 -2.226562 2.070312 -2.339844 C 1.636719 -2.453125 1.355469 -2.546875 1.222656 -2.613281 C 0.9375 -2.757812 0.792969 -2.957031 0.796875 -3.21875 C 0.796875 -3.355469 0.824219 -3.476562 0.886719 -3.5625 C 1.046875 -3.804688 1.335938 -3.929688 1.746094 -3.929688 C 2.328125 -3.929688 2.660156 -3.746094 2.746094 -3.382812 L 3.21875 -3.382812 C 3.0625 -3.992188 2.570312 -4.304688 1.746094 -4.304688 C 1.371094 -4.304688 1.042969 -4.207031 0.765625 -4.007812 C 0.488281 -3.804688 0.34375 -3.511719 0.34375 -3.113281 C 0.34375 -2.570312 0.78125 -2.195312 1.640625 -1.996094 Z M 1.640625 -1.996094 "/></g></g></g></svg>