<svg xmlns="http://www.w3.org/2000/svg" xmlns:xlink="http://www.w3.org/1999/xlink" width="150" zoomAndPan="magnify" viewBox="0 0 112.5 112.499997" height="150" preserveAspectRatio="xMidYMid meet" version="1.0"><defs><g/><clipPath id="a3a3436bd0"><path d="M 31 34.992188 L 50 34.992188 L 50 54 L 31 54 Z M 31 34.992188 " clip-rule="nonzero"/></clipPath><clipPath id="b2313635aa"><path d="M 29 40 L 44 40 L 44 56.742188 L 29 56.742188 Z M 29 40 " clip-rule="nonzero"/></clipPath></defs><g clip-path="url(#a3a3436bd0)"><path fill="#957dad" d="M 38.550781 53.042969 C 37.65625 53.046875 36.792969 52.882812 35.964844 52.550781 C 35.835938 52.5 35.742188 52.410156 35.6875 52.28125 C 35.632812 52.152344 35.632812 52.023438 35.683594 51.894531 C 35.738281 51.765625 35.828125 51.671875 35.957031 51.617188 C 36.082031 51.5625 36.210938 51.5625 36.339844 51.613281 C 38.226562 52.375 40.527344 52.085938 43.171875 50.753906 C 48.710938 47.964844 48.96875 39.839844 48.855469 36.757812 C 48.140625 37.238281 46.886719 37.636719 44.699219 37.390625 C 42.300781 37.113281 36.269531 38.613281 33.78125 42.328125 C 32.375 44.429688 32.410156 46.871094 33.890625 49.578125 C 33.996094 49.761719 34.121094 49.933594 34.257812 50.097656 C 34.347656 50.203125 34.386719 50.328125 34.375 50.464844 C 34.359375 50.605469 34.300781 50.71875 34.195312 50.808594 C 34.085938 50.898438 33.964844 50.9375 33.824219 50.921875 C 33.6875 50.910156 33.574219 50.851562 33.484375 50.742188 C 33.300781 50.53125 33.140625 50.300781 33.003906 50.058594 C 31.355469 47.039062 31.335938 44.171875 32.945312 41.765625 C 35.691406 37.660156 42.128906 36.078125 44.8125 36.382812 C 48.289062 36.777344 48.785156 35.390625 48.792969 35.378906 C 48.820312 35.261719 48.886719 35.164062 48.984375 35.09375 C 49.082031 35.019531 49.191406 34.988281 49.3125 34.992188 C 49.433594 35 49.539062 35.046875 49.628906 35.128906 C 49.714844 35.214844 49.765625 35.316406 49.78125 35.441406 C 49.839844 35.945312 51.113281 47.882812 43.625 51.652344 C 42.042969 52.519531 40.351562 52.980469 38.550781 53.042969 Z M 38.550781 53.042969 " fill-opacity="1" fill-rule="nonzero"/></g><g clip-path="url(#b2313635aa)"><path fill="#957dad" d="M 30.222656 56.742188 C 30.132812 56.742188 30.050781 56.71875 29.972656 56.675781 C 29.894531 56.628906 29.832031 56.570312 29.785156 56.492188 C 29.742188 56.414062 29.71875 56.328125 29.71875 56.238281 C 29.71875 56.148438 29.738281 56.066406 29.785156 55.988281 C 33.167969 50.039062 37.632812 45.066406 43.175781 41.066406 C 43.292969 40.992188 43.417969 40.96875 43.554688 41 C 43.6875 41.027344 43.792969 41.101562 43.867188 41.21875 C 43.945312 41.332031 43.96875 41.460938 43.941406 41.59375 C 43.914062 41.730469 43.839844 41.835938 43.726562 41.914062 C 38.320312 45.820312 33.964844 50.679688 30.660156 56.484375 C 30.5625 56.65625 30.417969 56.742188 30.222656 56.742188 Z M 30.222656 56.742188 " fill-opacity="1" fill-rule="nonzero"/></g><path fill="#957dad" d="M 25.839844 51.90625 C 24.855469 51.875 23.929688 51.621094 23.0625 51.152344 C 18.972656 49.089844 19.660156 42.648438 19.691406 42.378906 C 19.703125 42.257812 19.753906 42.152344 19.84375 42.070312 C 19.933594 41.984375 20.039062 41.9375 20.160156 41.929688 C 20.28125 41.921875 20.390625 41.957031 20.488281 42.027344 C 20.585938 42.101562 20.652344 42.195312 20.679688 42.3125 C 20.683594 42.3125 20.953125 42.839844 22.515625 42.660156 C 23.976562 42.496094 27.488281 43.359375 28.988281 45.597656 C 29.617188 46.539062 30.121094 48.101562 28.96875 50.214844 C 28.886719 50.355469 28.792969 50.488281 28.691406 50.609375 C 28.601562 50.71875 28.488281 50.78125 28.347656 50.796875 C 28.207031 50.808594 28.082031 50.773438 27.976562 50.683594 C 27.867188 50.59375 27.808594 50.476562 27.796875 50.335938 C 27.78125 50.195312 27.824219 50.070312 27.914062 49.964844 C 27.976562 49.890625 28.03125 49.8125 28.082031 49.726562 C 28.8125 48.386719 28.839844 47.1875 28.152344 46.164062 C 26.945312 44.363281 23.890625 43.515625 22.628906 43.667969 C 21.953125 43.777344 21.289062 43.714844 20.644531 43.492188 C 20.628906 45.273438 20.925781 48.941406 23.511719 50.246094 C 24.84375 50.917969 25.988281 51.066406 26.914062 50.691406 C 27.039062 50.640625 27.167969 50.640625 27.296875 50.695312 C 27.425781 50.75 27.511719 50.84375 27.566406 50.972656 C 27.617188 51.101562 27.617188 51.230469 27.5625 51.359375 C 27.507812 51.484375 27.417969 51.578125 27.289062 51.628906 C 26.824219 51.816406 26.339844 51.910156 25.839844 51.90625 Z M 25.839844 51.90625 " fill-opacity="1" fill-rule="nonzero"/><path fill="#957dad" d="M 30.222656 53.855469 C 30.027344 53.855469 29.878906 53.769531 29.78125 53.597656 C 28.066406 50.574219 25.800781 48.042969 22.984375 46.011719 C 22.867188 45.933594 22.792969 45.828125 22.765625 45.691406 C 22.738281 45.554688 22.761719 45.425781 22.835938 45.308594 C 22.914062 45.191406 23.019531 45.121094 23.15625 45.089844 C 23.289062 45.0625 23.417969 45.085938 23.535156 45.164062 C 26.496094 47.277344 28.871094 49.925781 30.660156 53.101562 C 30.703125 53.179688 30.726562 53.261719 30.726562 53.351562 C 30.722656 53.441406 30.703125 53.527344 30.65625 53.601562 C 30.613281 53.679688 30.550781 53.742188 30.472656 53.785156 C 30.394531 53.832031 30.3125 53.855469 30.222656 53.855469 Z M 30.222656 53.855469 " fill-opacity="1" fill-rule="nonzero"/><g fill="#957dad" fill-opacity="1"><g transform="translate(26.95362, 67.914276)"><g><path d="M 1.648438 -0.300781 C 1.648438 -0.101562 1.75 0 1.945312 0 L 2.9375 0 C 3.15625 0 3.277344 -0.0859375 3.277344 -0.300781 L 3.277344 -13.589844 C 3.277344 -13.777344 3.117188 -13.890625 2.9375 -13.890625 L 1.945312 -13.890625 C 1.761719 -13.890625 1.648438 -13.769531 1.648438 -13.589844 Z M 1.648438 -0.300781 "/></g></g></g><g fill="#957dad" fill-opacity="1"><g transform="translate(31.783667, 67.914276)"><g/></g></g><g fill="#957dad" fill-opacity="1"><g transform="translate(37.652739, 67.914276)"><g><path d="M 7.375 -0.207031 C 7.386719 -0.214844 7.394531 -0.234375 7.394531 -0.261719 L 9.25 -4.765625 L 11.121094 -0.28125 L 11.101562 -0.300781 C 11.148438 -0.195312 11.175781 0 11.511719 0 L 12.148438 0 C 12.441406 0 12.488281 -0.140625 12.523438 -0.242188 L 12.523438 -0.214844 C 12.523438 -0.226562 12.542969 -0.234375 12.542969 -0.261719 L 17.992188 -13.460938 C 17.992188 -13.527344 18.027344 -13.621094 18.027344 -13.683594 C 18.027344 -13.824219 17.917969 -13.890625 17.691406 -13.890625 L 16.699219 -13.890625 C 16.484375 -13.890625 16.363281 -13.789062 16.289062 -13.609375 L 16.289062 -13.628906 C 15.546875 -11.699219 12.476562 -4.035156 11.832031 -2.488281 C 11.558594 -3.136719 10.859375 -4.839844 10.082031 -6.769531 L 12.84375 -13.460938 C 12.871094 -13.527344 12.878906 -13.621094 12.878906 -13.683594 C 12.878906 -13.824219 12.777344 -13.890625 12.5625 -13.890625 L 5.933594 -13.890625 C 5.71875 -13.890625 5.617188 -13.824219 5.617188 -13.683594 C 5.617188 -13.601562 5.617188 -13.542969 5.625 -13.515625 C 5.625 -13.488281 5.625 -13.46875 5.636719 -13.460938 L 8.425781 -6.757812 C 7.648438 -4.839844 6.953125 -3.136719 6.703125 -2.488281 C 6.046875 -4.042969 2.929688 -11.699219 2.191406 -13.628906 C 2.125 -13.777344 2.011719 -13.890625 1.796875 -13.890625 L 0.785156 -13.890625 C 0.570312 -13.890625 0.46875 -13.824219 0.46875 -13.683594 C 0.46875 -13.621094 0.476562 -13.5625 0.488281 -13.515625 C 0.496094 -13.488281 0.496094 -13.46875 0.503906 -13.460938 L 5.992188 -0.28125 L 5.972656 -0.300781 C 6.019531 -0.195312 6.046875 0 6.382812 0 L 7 0 C 7.265625 0 7.328125 -0.101562 7.375 -0.207031 Z M 9.25 -8.816406 C 8.675781 -10.230469 8.132812 -11.578125 7.75 -12.5625 L 10.746094 -12.5625 Z M 7.375 -0.207031 C 7.375 -0.207031 7.386719 -0.214844 7.394531 -0.242188 Z M 7.375 -0.207031 "/></g></g></g><g fill="#957dad" fill-opacity="1"><g transform="translate(56.055603, 67.914276)"><g><path d="M 12.863281 0 C 13.085938 0 13.199219 -0.0742188 13.199219 -0.234375 C 13.199219 -0.261719 13.179688 -0.308594 13.171875 -0.375 L 13.152344 -0.46875 L 13.160156 -0.457031 C 11.355469 -4.839844 9.25 -9.21875 7.449219 -13.609375 C 7.394531 -13.695312 7.414062 -13.902344 7.046875 -13.902344 L 6.984375 -13.902344 C 6.675781 -13.902344 6.628906 -13.75 6.582031 -13.648438 L 0.804688 -0.457031 C 0.796875 -0.449219 0.796875 -0.429688 0.785156 -0.402344 C 0.777344 -0.375 0.777344 -0.316406 0.777344 -0.234375 C 0.777344 -0.0742188 0.890625 0 1.125 0 Z M 7 -10.886719 L 10.914062 -1.648438 L 3.0625 -1.648438 Z M 7 -10.886719 "/></g></g></g><g fill="#957dad" fill-opacity="1"><g transform="translate(69.684577, 67.914276)"><g><path d="M 13.03125 0 C 13.265625 0 13.386719 -0.101562 13.386719 -0.300781 L 13.386719 -13.589844 C 13.386719 -13.777344 13.207031 -13.890625 13.03125 -13.890625 L 12.074219 -13.890625 C 11.917969 -13.890625 11.8125 -13.816406 11.777344 -13.667969 L 11.777344 -2.695312 L 3.464844 -13.742188 C 3.386719 -13.84375 3.285156 -13.890625 3.164062 -13.890625 L 1.890625 -13.890625 C 1.703125 -13.890625 1.574219 -13.761719 1.574219 -13.574219 L 1.574219 -0.253906 C 1.582031 -0.0859375 1.675781 0 1.871094 0 Z M 3.183594 -1.609375 L 3.183594 -10.539062 L 3.164062 -10.539062 L 3.164062 -11.570312 L 10.585938 -1.609375 Z M 3.183594 -1.609375 "/></g></g></g><g fill="#957dad" fill-opacity="1"><g transform="translate(40.934084, 75.791246)"><g><path d="M 4.363281 -1.296875 L 3.882812 -1.296875 C 3.730469 -1.023438 3.527344 -0.796875 3.265625 -0.636719 C 3 -0.46875 2.707031 -0.386719 2.394531 -0.386719 C 1.929688 -0.386719 1.527344 -0.554688 1.199219 -0.90625 C 0.875 -1.234375 0.71875 -1.640625 0.71875 -2.117188 C 0.71875 -2.589844 0.875 -2.996094 1.199219 -3.332031 C 1.347656 -3.488281 1.527344 -3.613281 1.734375 -3.707031 C 1.933594 -3.800781 2.132812 -3.851562 2.332031 -3.851562 C 2.527344 -3.851562 2.695312 -3.824219 2.84375 -3.78125 C 3.300781 -3.644531 3.644531 -3.371094 3.875 -2.953125 L 4.355469 -2.953125 C 4.195312 -3.351562 3.9375 -3.675781 3.582031 -3.925781 C 3.21875 -4.175781 2.828125 -4.300781 2.394531 -4.300781 C 1.804688 -4.300781 1.304688 -4.082031 0.890625 -3.652344 C 0.699219 -3.449219 0.550781 -3.214844 0.441406 -2.953125 C 0.332031 -2.691406 0.28125 -2.410156 0.28125 -2.117188 C 0.28125 -1.515625 0.480469 -1.011719 0.890625 -0.585938 C 1.304688 -0.148438 1.804688 0.0625 2.394531 0.0625 C 2.828125 0.0625 3.21875 -0.0625 3.589844 -0.3125 C 3.945312 -0.5625 4.199219 -0.886719 4.363281 -1.296875 Z M 4.363281 -1.296875 "/></g></g></g><g fill="#957dad" fill-opacity="1"><g transform="translate(47.080876, 75.791246)"><g><path d="M 4.207031 -2.132812 C 4.207031 -1.648438 4.03125 -1.234375 3.695312 -0.898438 C 3.351562 -0.554688 2.9375 -0.386719 2.457031 -0.386719 C 1.976562 -0.386719 1.566406 -0.554688 1.230469 -0.898438 C 0.886719 -1.234375 0.71875 -1.648438 0.71875 -2.132812 C 0.71875 -2.609375 0.886719 -3.019531 1.230469 -3.363281 C 1.566406 -3.699219 1.976562 -3.875 2.457031 -3.875 C 2.9375 -3.875 3.351562 -3.699219 3.695312 -3.363281 C 4.03125 -3.019531 4.207031 -2.609375 4.207031 -2.132812 Z M 4.644531 -2.132812 C 4.644531 -2.433594 4.582031 -2.714844 4.46875 -2.984375 C 4.355469 -3.246094 4.199219 -3.476562 4 -3.675781 C 3.800781 -3.867188 3.570312 -4.023438 3.308594 -4.136719 C 3.039062 -4.25 2.757812 -4.3125 2.457031 -4.3125 C 2.160156 -4.3125 1.871094 -4.25 1.609375 -4.136719 C 1.347656 -4.023438 1.117188 -3.867188 0.917969 -3.675781 C 0.71875 -3.476562 0.5625 -3.246094 0.449219 -2.984375 C 0.335938 -2.714844 0.28125 -2.433594 0.28125 -2.132812 C 0.28125 -1.835938 0.335938 -1.546875 0.449219 -1.285156 C 0.5625 -1.015625 0.71875 -0.785156 0.917969 -0.585938 C 1.117188 -0.386719 1.347656 -0.230469 1.609375 -0.117188 C 1.871094 -0.0078125 2.160156 0.0507812 2.457031 0.0507812 C 2.757812 0.0507812 3.039062 -0.0078125 3.308594 -0.117188 C 3.570312 -0.230469 3.800781 -0.386719 4 -0.585938 C 4.199219 -0.785156 4.355469 -1.015625 4.46875 -1.285156 C 4.582031 -1.546875 4.644531 -1.835938 4.644531 -2.132812 Z M 4.644531 -2.132812 "/></g></g></g><g fill="#957dad" fill-opacity="1"><g transform="translate(53.602095, 75.791246)"><g><path d="M 1.640625 -1.996094 C 2.191406 -1.867188 2.566406 -1.722656 2.765625 -1.558594 C 2.902344 -1.449219 2.96875 -1.304688 2.96875 -1.128906 C 2.96875 -0.953125 2.933594 -0.8125 2.859375 -0.710938 C 2.671875 -0.449219 2.332031 -0.316406 1.859375 -0.316406 C 1.199219 -0.316406 0.824219 -0.542969 0.742188 -0.992188 L 0.230469 -0.992188 C 0.378906 -0.273438 0.921875 0.0820312 1.859375 0.0820312 C 2.277344 0.0820312 2.628906 -0.0078125 2.90625 -0.195312 C 3.246094 -0.410156 3.417969 -0.738281 3.417969 -1.160156 C 3.417969 -1.511719 3.28125 -1.777344 3.007812 -1.964844 C 2.8125 -2.101562 2.503906 -2.226562 2.070312 -2.339844 C 1.636719 -2.453125 1.355469 -2.546875 1.222656 -2.613281 C 0.9375 -2.757812 0.792969 -2.957031 0.796875 -3.21875 C 0.796875 -3.355469 0.824219 -3.476562 0.886719 -3.5625 C 1.046875 -3.804688 1.335938 -3.929688 1.746094 -3.929688 C 2.328125 -3.929688 2.660156 -3.746094 2.746094 -3.382812 L 3.21875 -3.382812 C 3.0625 -3.992188 2.570312 -4.304688 1.746094 -4.304688 C 1.371094 -4.304688 1.042969 -4.207031 0.765625 -4.007812 C 0.488281 -3.804688 0.34375 -3.511719 0.34375 -3.113281 C 0.34375 -2.570312 0.78125 -2.195312 1.640625 -1.996094 Z M 1.640625 -1.996094 "/></g></g></g><g fill="#957dad" fill-opacity="1"><g transform="translate(58.781629, 75.791246)"><g><path d="M 4.378906 0 L 4.824219 0 L 3.835938 -4.523438 L 2.445312 -0.890625 L 1.054688 -4.523438 L 0.0625 0 L 0.511719 0 L 1.167969 -3.019531 L 2.445312 0.25 L 3.71875 -3.019531 Z M 4.378906 0 "/></g></g></g><g fill="#957dad" fill-opacity="1"><g transform="translate(65.265408, 75.791246)"><g><path d="M 2.988281 0 L 2.988281 -0.40625 L 0.90625 -0.40625 L 0.90625 -1.914062 L 2.925781 -1.914062 L 2.925781 -2.328125 L 0.90625 -2.328125 L 0.90625 -3.835938 L 2.988281 -3.835938 L 2.988281 -4.242188 L 0.46875 -4.242188 L 0.46875 0 Z M 2.988281 0 "/></g></g></g><g fill="#957dad" fill-opacity="1"><g transform="translate(70.320131, 75.791246)"><g><path d="M 0.125 -3.851562 L 1.15625 -3.851562 L 1.15625 -0.0117188 L 1.589844 -0.0117188 L 1.589844 -3.851562 L 2.621094 -3.851562 L 2.621094 -4.257812 L 0.125 -4.257812 Z M 0.125 -3.851562 "/></g></g></g><g fill="#957dad" fill-opacity="1"><g transform="translate(74.663447, 75.791246)"><g><path d="M 0.90625 0 L 0.90625 -4.242188 L 0.46875 -4.242188 L 0.46875 0 Z M 0.90625 0 "/></g></g></g><g fill="#957dad" fill-opacity="1"><g transform="translate(77.633875, 75.791246)"><g><path d="M 4.363281 -1.296875 L 3.882812 -1.296875 C 3.730469 -1.023438 3.527344 -0.796875 3.265625 -0.636719 C 3 -0.46875 2.707031 -0.386719 2.394531 -0.386719 C 1.929688 -0.386719 1.527344 -0.554688 1.199219 -0.90625 C 0.875 -1.234375 0.71875 -1.640625 0.71875 -2.117188 C 0.71875 -2.589844 0.875 -2.996094 1.199219 -3.332031 C 1.347656 -3.488281 1.527344 -3.613281 1.734375 -3.707031 C 1.933594 -3.800781 2.132812 -3.851562 2.332031 -3.851562 C 2.527344 -3.851562 2.695312 -3.824219 2.84375 -3.78125 C 3.300781 -3.644531 3.644531 -3.371094 3.875 -2.953125 L 4.355469 -2.953125 C 4.195312 -3.351562 3.9375 -3.675781 3.582031 -3.925781 C 3.21875 -4.175781 2.828125 -4.300781 2.394531 -4.300781 C 1.804688 -4.300781 1.304688 -4.082031 0.890625 -3.652344 C 0.699219 -3.449219 0.550781 -3.214844 0.441406 -2.953125 C 0.332031 -2.691406 0.28125 -2.410156 0.28125 -2.117188 C 0.28125 -1.515625 0.480469 -1.011719 0.890625 -0.585938 C 1.304688 -0.148438 1.804688 0.0625 2.394531 0.0625 C 2.828125 0.0625 3.21875 -0.0625 3.589844 -0.3125 C 3.945312 -0.5625 4.199219 -0.886719 4.363281 -1.296875 Z M 4.363281 -1.296875 "/></g></g></g><g fill="#957dad" fill-opacity="1"><g transform="translate(83.780668, 75.791246)"><g><path d="M 1.640625 -1.996094 C 2.191406 -1.867188 2.566406 -1.722656 2.765625 -1.558594 C 2.902344 -1.449219 2.96875 -1.304688 2.96875 -1.128906 C 2.96875 -0.953125 2.933594 -0.8125 2.859375 -0.710938 C 2.671875 -0.449219 2.332031 -0.316406 1.859375 -0.316406 C 1.199219 -0.316406 0.824219 -0.542969 0.742188 -0.992188 L 0.230469 -0.992188 C 0.378906 -0.273438 0.921875 0.0820312 1.859375 0.0820312 C 2.277344 0.0820312 2.628906 -0.0078125 2.90625 -0.195312 C 3.246094 -0.410156 3.417969 -0.738281 3.417969 -1.160156 C 3.417969 -1.511719 3.28125 -1.777344 3.007812 -1.964844 C 2.8125 -2.101562 2.503906 -2.226562 2.070312 -2.339844 C 1.636719 -2.453125 1.355469 -2.546875 1.222656 -2.613281 C 0.9375 -2.757812 0.792969 -2.957031 0.796875 -3.21875 C 0.796875 -3.355469 0.824219 -3.476562 0.886719 -3.5625 C 1.046875 -3.804688 1.335938 -3.929688 1.746094 -3.929688 C 2.328125 -3.929688 2.660156 -3.746094 2.746094 -3.382812 L 3.21875 -3.382812 C 3.0625 -3.992188 2.570312 -4.304688 1.746094 -4.304688 C 1.371094 -4.304688 1.042969 -4.207031 0.765625 -4.007812 C 0.488281 -3.804688 0.34375 -3.511719 0.34375 -3.113281 C 0.34375 -2.570312 0.78125 -2.195312 1.640625 -1.996094 Z M 1.640625 -1.996094 "/></g></g></g></svg>