<svg xmlns="http://www.w3.org/2000/svg" xmlns:xlink="http://www.w3.org/1999/xlink" width="500" zoomAndPan="magnify" viewBox="0 0 375 374.999991" height="500" preserveAspectRatio="xMidYMid meet" version="1.0"><defs><g/><clipPath id="4f7ab3713d"><path d="M 135 122.445312 L 171 122.445312 L 171 158 L 135 158 Z M 135 122.445312 " clip-rule="nonzero"/></clipPath><clipPath id="6337a3932a"><path d="M 131 134 L 160 134 L 160 164.445312 L 131 164.445312 Z M 131 134 " clip-rule="nonzero"/></clipPath></defs><g clip-path="url(#4f7ab3713d)"><path fill="#000000" d="M 148.894531 157.296875 C 147.167969 157.308594 145.503906 156.992188 143.902344 156.351562 C 143.652344 156.25 143.476562 156.078125 143.371094 155.828125 C 143.265625 155.582031 143.261719 155.332031 143.363281 155.082031 C 143.464844 154.832031 143.636719 154.652344 143.882812 154.546875 C 144.132812 154.441406 144.378906 154.4375 144.628906 154.539062 C 148.265625 156.011719 152.710938 155.453125 157.820312 152.878906 C 168.515625 147.492188 169.011719 131.800781 168.792969 125.855469 C 167.414062 126.785156 164.992188 127.550781 160.769531 127.070312 C 156.132812 126.539062 144.488281 129.4375 139.6875 136.613281 C 136.972656 140.671875 137.042969 145.378906 139.894531 150.605469 C 140.105469 150.960938 140.34375 151.296875 140.609375 151.609375 C 140.78125 151.816406 140.855469 152.054688 140.832031 152.324219 C 140.804688 152.589844 140.691406 152.8125 140.484375 152.984375 C 140.277344 153.15625 140.039062 153.230469 139.773438 153.207031 C 139.503906 153.183594 139.285156 153.066406 139.113281 152.859375 C 138.761719 152.449219 138.453125 152.007812 138.183594 151.539062 C 135.003906 145.710938 134.960938 140.171875 138.070312 135.519531 C 143.378906 127.589844 155.804688 124.539062 160.988281 125.125 C 167.695312 125.890625 168.660156 123.214844 168.667969 123.1875 C 168.726562 122.960938 168.847656 122.777344 169.039062 122.636719 C 169.226562 122.496094 169.4375 122.433594 169.671875 122.445312 C 169.910156 122.460938 170.113281 122.546875 170.28125 122.710938 C 170.453125 122.875 170.550781 123.074219 170.578125 123.308594 C 170.691406 124.285156 173.148438 147.335938 158.695312 154.617188 C 155.636719 156.285156 152.371094 157.179688 148.894531 157.296875 Z M 148.894531 157.296875 " fill-opacity="1" fill-rule="nonzero"/></g><g clip-path="url(#6337a3932a)"><path fill="#000000" d="M 132.816406 164.445312 C 132.644531 164.445312 132.480469 164.402344 132.332031 164.3125 C 132.179688 164.226562 132.0625 164.109375 131.976562 163.957031 C 131.886719 163.808594 131.84375 163.648438 131.84375 163.472656 C 131.84375 163.300781 131.882812 163.136719 131.96875 162.984375 C 135.199219 157.308594 138.992188 152.042969 143.351562 147.183594 C 147.710938 142.324219 152.539062 137.988281 157.828125 134.171875 C 158.050781 134.027344 158.292969 133.988281 158.554688 134.042969 C 158.816406 134.101562 159.015625 134.242188 159.164062 134.464844 C 159.308594 134.6875 159.355469 134.929688 159.300781 135.191406 C 159.246094 135.453125 159.109375 135.660156 158.890625 135.808594 C 153.730469 139.539062 149.023438 143.777344 144.769531 148.519531 C 140.515625 153.265625 136.816406 158.40625 133.664062 163.949219 C 133.476562 164.277344 133.195312 164.445312 132.816406 164.445312 Z M 132.816406 164.445312 " fill-opacity="1" fill-rule="nonzero"/></g><path fill="#000000" d="M 124.355469 155.105469 C 122.453125 155.042969 120.664062 154.554688 118.992188 153.644531 C 111.097656 149.667969 112.421875 137.230469 112.480469 136.703125 C 112.507812 136.46875 112.609375 136.269531 112.777344 136.109375 C 112.949219 135.945312 113.152344 135.859375 113.386719 135.84375 C 113.621094 135.828125 113.835938 135.890625 114.023438 136.03125 C 114.214844 136.167969 114.335938 136.351562 114.394531 136.582031 C 114.402344 136.582031 114.921875 137.597656 117.9375 137.253906 C 120.761719 136.9375 127.539062 138.597656 130.433594 142.925781 C 131.644531 144.738281 132.621094 147.753906 130.390625 151.839844 C 130.238281 152.109375 130.058594 152.363281 129.855469 152.601562 C 129.773438 152.703125 129.675781 152.785156 129.5625 152.847656 C 129.449219 152.910156 129.324219 152.949219 129.195312 152.960938 C 129.066406 152.972656 128.941406 152.960938 128.816406 152.921875 C 128.691406 152.886719 128.578125 152.824219 128.476562 152.742188 C 128.378906 152.65625 128.296875 152.558594 128.238281 152.441406 C 128.175781 152.328125 128.140625 152.203125 128.128906 152.074219 C 128.117188 151.941406 128.132812 151.816406 128.171875 151.691406 C 128.210938 151.566406 128.273438 151.457031 128.359375 151.355469 C 128.480469 151.210938 128.589844 151.0625 128.683594 150.898438 C 130.097656 148.3125 130.144531 145.996094 128.816406 144.015625 C 126.488281 140.539062 120.589844 138.90625 118.15625 139.195312 C 116.847656 139.402344 115.570312 139.289062 114.324219 138.851562 C 114.292969 142.300781 114.863281 149.378906 119.863281 151.898438 C 122.433594 153.195312 124.640625 153.480469 126.425781 152.757812 C 126.675781 152.660156 126.921875 152.664062 127.167969 152.769531 C 127.414062 152.875 127.585938 153.050781 127.6875 153.300781 C 127.785156 153.550781 127.785156 153.796875 127.683594 154.046875 C 127.578125 154.292969 127.402344 154.46875 127.15625 154.570312 C 126.257812 154.933594 125.324219 155.109375 124.355469 155.105469 Z M 124.355469 155.105469 " fill-opacity="1" fill-rule="nonzero"/><path fill="#000000" d="M 132.816406 158.867188 C 132.4375 158.867188 132.15625 158.703125 131.96875 158.371094 C 128.652344 152.53125 124.277344 147.648438 118.839844 143.71875 C 118.613281 143.574219 118.472656 143.367188 118.417969 143.101562 C 118.363281 142.839844 118.410156 142.59375 118.554688 142.367188 C 118.703125 142.140625 118.90625 142 119.171875 141.945312 C 119.433594 141.890625 119.675781 141.933594 119.902344 142.082031 C 125.621094 146.167969 130.207031 151.277344 133.664062 157.410156 C 133.746094 157.5625 133.789062 157.726562 133.789062 157.898438 C 133.785156 158.070312 133.742188 158.230469 133.652344 158.382812 C 133.566406 158.53125 133.449219 158.648438 133.300781 158.734375 C 133.148438 158.820312 132.988281 158.867188 132.816406 158.867188 Z M 132.816406 158.867188 " fill-opacity="1" fill-rule="nonzero"/><g fill="#000000" fill-opacity="1"><g transform="translate(126.450413, 185.750964)"><g><path d="M 3.167969 -0.574219 C 3.167969 -0.199219 3.367188 0 3.742188 0 L 5.652344 0 C 6.066406 0 6.300781 -0.160156 6.300781 -0.574219 L 6.300781 -26.136719 C 6.300781 -26.496094 5.992188 -26.710938 5.652344 -26.710938 L 3.742188 -26.710938 C 3.382812 -26.710938 3.167969 -26.476562 3.167969 -26.136719 Z M 3.167969 -0.574219 "/></g></g></g><g fill="#000000" fill-opacity="1"><g transform="translate(135.73838, 185.750964)"><g/></g></g><g fill="#000000" fill-opacity="1"><g transform="translate(147.024348, 185.750964)"><g><path d="M 14.183594 -0.394531 C 14.203125 -0.414062 14.21875 -0.449219 14.21875 -0.503906 L 17.785156 -9.160156 L 21.382812 -0.539062 L 21.347656 -0.574219 C 21.4375 -0.378906 21.492188 0 22.140625 0 L 23.363281 0 C 23.921875 0 24.011719 -0.269531 24.085938 -0.46875 L 24.085938 -0.414062 C 24.085938 -0.433594 24.121094 -0.449219 24.121094 -0.503906 L 34.597656 -25.882812 C 34.597656 -26.011719 34.667969 -26.191406 34.667969 -26.316406 C 34.667969 -26.585938 34.453125 -26.710938 34.019531 -26.710938 L 32.113281 -26.710938 C 31.699219 -26.710938 31.464844 -26.515625 31.320312 -26.171875 L 31.320312 -26.207031 C 29.898438 -22.5 23.992188 -7.757812 22.753906 -4.789062 C 22.230469 -6.03125 20.878906 -9.304688 19.386719 -13.015625 L 24.695312 -25.882812 C 24.75 -26.011719 24.769531 -26.191406 24.769531 -26.316406 C 24.769531 -26.585938 24.570312 -26.710938 24.15625 -26.710938 L 11.410156 -26.710938 C 10.996094 -26.710938 10.800781 -26.585938 10.800781 -26.316406 C 10.800781 -26.152344 10.800781 -26.046875 10.816406 -25.992188 C 10.816406 -25.9375 10.816406 -25.902344 10.835938 -25.882812 L 16.199219 -12.996094 C 14.707031 -9.304688 13.375 -6.03125 12.886719 -4.789062 C 11.628906 -7.777344 5.632812 -22.5 4.210938 -26.207031 C 4.085938 -26.496094 3.871094 -26.710938 3.457031 -26.710938 L 1.511719 -26.710938 C 1.097656 -26.710938 0.898438 -26.585938 0.898438 -26.316406 C 0.898438 -26.191406 0.917969 -26.082031 0.9375 -25.992188 C 0.953125 -25.9375 0.953125 -25.902344 0.972656 -25.882812 L 11.519531 -0.539062 L 11.484375 -0.574219 C 11.574219 -0.378906 11.628906 0 12.277344 0 L 13.464844 0 C 13.96875 0 14.09375 -0.199219 14.183594 -0.394531 Z M 17.785156 -16.957031 C 16.6875 -19.675781 15.640625 -22.265625 14.902344 -24.15625 L 20.664062 -24.15625 Z M 14.183594 -0.394531 C 14.183594 -0.394531 14.203125 -0.414062 14.21875 -0.46875 Z M 14.183594 -0.394531 "/></g></g></g><g fill="#000000" fill-opacity="1"><g transform="translate(182.412246, 185.750964)"><g><path d="M 24.730469 0 C 25.164062 0 25.378906 -0.144531 25.378906 -0.449219 C 25.378906 -0.503906 25.34375 -0.59375 25.324219 -0.71875 L 25.289062 -0.898438 L 25.308594 -0.882812 C 21.835938 -9.304688 17.785156 -17.730469 14.328125 -26.171875 C 14.21875 -26.335938 14.257812 -26.730469 13.554688 -26.730469 L 13.429688 -26.730469 C 12.835938 -26.730469 12.742188 -26.441406 12.652344 -26.242188 L 1.546875 -0.882812 C 1.53125 -0.863281 1.53125 -0.828125 1.511719 -0.773438 C 1.492188 -0.71875 1.492188 -0.613281 1.492188 -0.449219 C 1.492188 -0.144531 1.710938 0 2.160156 0 Z M 13.464844 -20.933594 L 20.988281 -3.167969 L 5.886719 -3.167969 Z M 13.464844 -20.933594 "/></g></g></g><g fill="#000000" fill-opacity="1"><g transform="translate(208.620164, 185.750964)"><g><path d="M 25.054688 0 C 25.507812 0 25.738281 -0.199219 25.738281 -0.574219 L 25.738281 -26.136719 C 25.738281 -26.496094 25.398438 -26.710938 25.054688 -26.710938 L 23.21875 -26.710938 C 22.914062 -26.710938 22.714844 -26.566406 22.644531 -26.28125 L 22.644531 -5.183594 L 6.660156 -26.425781 C 6.515625 -26.621094 6.316406 -26.710938 6.085938 -26.710938 L 3.636719 -26.710938 C 3.277344 -26.710938 3.023438 -26.460938 3.023438 -26.101562 L 3.023438 -0.484375 C 3.042969 -0.160156 3.222656 0 3.601562 0 Z M 6.121094 -3.097656 L 6.121094 -20.269531 L 6.085938 -20.269531 L 6.085938 -22.246094 L 20.359375 -3.097656 Z M 6.121094 -3.097656 "/></g></g></g><g fill="#000000" fill-opacity="1"><g transform="translate(153.334228, 200.898035)"><g><path d="M 8.386719 -2.496094 L 7.464844 -2.496094 C 7.175781 -1.96875 6.78125 -1.535156 6.277344 -1.222656 C 5.773438 -0.898438 5.207031 -0.742188 4.609375 -0.742188 C 3.707031 -0.742188 2.941406 -1.066406 2.304688 -1.738281 C 1.679688 -2.375 1.378906 -3.15625 1.378906 -4.066406 C 1.378906 -4.980469 1.679688 -5.761719 2.304688 -6.40625 C 2.59375 -6.707031 2.941406 -6.949219 3.335938 -7.128906 C 3.71875 -7.308594 4.105469 -7.402344 4.488281 -7.402344 C 4.859375 -7.402344 5.183594 -7.355469 5.472656 -7.273438 C 6.347656 -7.007812 7.007812 -6.480469 7.453125 -5.675781 L 8.375 -5.675781 C 8.0625 -6.445312 7.570312 -7.066406 6.886719 -7.546875 C 6.191406 -8.027344 5.4375 -8.269531 4.609375 -8.269531 C 3.46875 -8.269531 2.507812 -7.847656 1.714844 -7.019531 C 1.34375 -6.636719 1.054688 -6.179688 0.851562 -5.675781 C 0.636719 -5.171875 0.539062 -4.632812 0.539062 -4.066406 C 0.539062 -2.914062 0.925781 -1.945312 1.714844 -1.128906 C 2.507812 -0.289062 3.46875 0.121094 4.609375 0.121094 C 5.4375 0.121094 6.191406 -0.121094 6.898438 -0.601562 C 7.585938 -1.078125 8.074219 -1.703125 8.386719 -2.496094 Z M 8.386719 -2.496094 "/></g></g></g><g fill="#000000" fill-opacity="1"><g transform="translate(165.154241, 200.898035)"><g><path d="M 8.089844 -4.105469 C 8.089844 -3.167969 7.753906 -2.375 7.105469 -1.726562 C 6.445312 -1.066406 5.652344 -0.742188 4.726562 -0.742188 C 3.804688 -0.742188 3.011719 -1.066406 2.363281 -1.726562 C 1.703125 -2.375 1.378906 -3.167969 1.378906 -4.105469 C 1.378906 -5.015625 1.703125 -5.808594 2.363281 -6.46875 C 3.011719 -7.117188 3.804688 -7.453125 4.726562 -7.453125 C 5.652344 -7.453125 6.445312 -7.117188 7.105469 -6.46875 C 7.753906 -5.808594 8.089844 -5.015625 8.089844 -4.105469 Z M 8.929688 -4.105469 C 8.929688 -4.679688 8.808594 -5.21875 8.59375 -5.734375 C 8.375 -6.238281 8.074219 -6.683594 7.691406 -7.066406 C 7.308594 -7.441406 6.863281 -7.738281 6.359375 -7.957031 C 5.84375 -8.171875 5.304688 -8.292969 4.726562 -8.292969 C 4.152344 -8.292969 3.601562 -8.171875 3.097656 -7.957031 C 2.59375 -7.738281 2.148438 -7.441406 1.765625 -7.066406 C 1.378906 -6.683594 1.078125 -6.238281 0.863281 -5.734375 C 0.648438 -5.21875 0.539062 -4.679688 0.539062 -4.105469 C 0.539062 -3.527344 0.648438 -2.976562 0.863281 -2.472656 C 1.078125 -1.957031 1.378906 -1.511719 1.765625 -1.128906 C 2.148438 -0.742188 2.59375 -0.445312 3.097656 -0.226562 C 3.601562 -0.0117188 4.152344 0.0976562 4.726562 0.0976562 C 5.304688 0.0976562 5.84375 -0.0117188 6.359375 -0.226562 C 6.863281 -0.445312 7.308594 -0.742188 7.691406 -1.128906 C 8.074219 -1.511719 8.375 -1.957031 8.59375 -2.472656 C 8.808594 -2.976562 8.929688 -3.527344 8.929688 -4.105469 Z M 8.929688 -4.105469 "/></g></g></g><g fill="#000000" fill-opacity="1"><g transform="translate(177.694258, 200.898035)"><g><path d="M 3.15625 -3.839844 C 4.210938 -3.589844 4.933594 -3.3125 5.316406 -3 C 5.578125 -2.785156 5.710938 -2.507812 5.710938 -2.171875 C 5.710938 -1.835938 5.640625 -1.558594 5.496094 -1.367188 C 5.136719 -0.863281 4.488281 -0.613281 3.574219 -0.613281 C 2.304688 -0.613281 1.585938 -1.042969 1.429688 -1.90625 L 0.445312 -1.90625 C 0.730469 -0.527344 1.777344 0.15625 3.574219 0.15625 C 4.378906 0.15625 5.050781 -0.0117188 5.59375 -0.371094 C 6.238281 -0.792969 6.574219 -1.414062 6.574219 -2.230469 C 6.574219 -2.902344 6.3125 -3.421875 5.785156 -3.78125 C 5.410156 -4.042969 4.8125 -4.285156 3.984375 -4.5 C 3.144531 -4.714844 2.605469 -4.894531 2.351562 -5.027344 C 1.800781 -5.304688 1.523438 -5.6875 1.535156 -6.191406 C 1.535156 -6.457031 1.585938 -6.683594 1.703125 -6.851562 C 2.015625 -7.320312 2.566406 -7.558594 3.359375 -7.558594 C 4.476562 -7.558594 5.113281 -7.199219 5.28125 -6.503906 L 6.191406 -6.503906 C 5.890625 -7.679688 4.945312 -8.28125 3.359375 -8.28125 C 2.640625 -8.28125 2.003906 -8.089844 1.476562 -7.703125 C 0.9375 -7.320312 0.660156 -6.757812 0.660156 -5.988281 C 0.660156 -4.945312 1.5 -4.222656 3.15625 -3.839844 Z M 3.15625 -3.839844 "/></g></g></g><g fill="#000000" fill-opacity="1"><g transform="translate(187.654273, 200.898035)"><g><path d="M 8.425781 0 L 9.277344 0 L 7.378906 -8.699219 L 4.703125 -1.714844 L 2.027344 -8.699219 L 0.121094 0 L 0.984375 0 L 2.242188 -5.808594 L 4.703125 0.480469 L 7.152344 -5.808594 Z M 8.425781 0 "/></g></g></g><g fill="#000000" fill-opacity="1"><g transform="translate(200.122296, 200.898035)"><g><path d="M 5.746094 0 L 5.746094 -0.78125 L 1.738281 -0.78125 L 1.738281 -3.683594 L 5.628906 -3.683594 L 5.628906 -4.476562 L 1.738281 -4.476562 L 1.738281 -7.378906 L 5.746094 -7.378906 L 5.746094 -8.160156 L 0.898438 -8.160156 L 0.898438 0 Z M 5.746094 0 "/></g></g></g><g fill="#000000" fill-opacity="1"><g transform="translate(209.842306, 200.898035)"><g><path d="M 0.238281 -7.402344 L 2.21875 -7.402344 L 2.21875 -0.0234375 L 3.058594 -0.0234375 L 3.058594 -7.402344 L 5.039062 -7.402344 L 5.039062 -8.183594 L 0.238281 -8.183594 Z M 0.238281 -7.402344 "/></g></g></g><g fill="#000000" fill-opacity="1"><g transform="translate(218.194312, 200.898035)"><g><path d="M 1.738281 0 L 1.738281 -8.160156 L 0.898438 -8.160156 L 0.898438 0 Z M 1.738281 0 "/></g></g></g><g fill="#000000" fill-opacity="1"><g transform="translate(223.906316, 200.898035)"><g><path d="M 8.386719 -2.496094 L 7.464844 -2.496094 C 7.175781 -1.96875 6.78125 -1.535156 6.277344 -1.222656 C 5.773438 -0.898438 5.207031 -0.742188 4.609375 -0.742188 C 3.707031 -0.742188 2.941406 -1.066406 2.304688 -1.738281 C 1.679688 -2.375 1.378906 -3.15625 1.378906 -4.066406 C 1.378906 -4.980469 1.679688 -5.761719 2.304688 -6.40625 C 2.59375 -6.707031 2.941406 -6.949219 3.335938 -7.128906 C 3.71875 -7.308594 4.105469 -7.402344 4.488281 -7.402344 C 4.859375 -7.402344 5.183594 -7.355469 5.472656 -7.273438 C 6.347656 -7.007812 7.007812 -6.480469 7.453125 -5.675781 L 8.375 -5.675781 C 8.0625 -6.445312 7.570312 -7.066406 6.886719 -7.546875 C 6.191406 -8.027344 5.4375 -8.269531 4.609375 -8.269531 C 3.46875 -8.269531 2.507812 -7.847656 1.714844 -7.019531 C 1.34375 -6.636719 1.054688 -6.179688 0.851562 -5.675781 C 0.636719 -5.171875 0.539062 -4.632812 0.539062 -4.066406 C 0.539062 -2.914062 0.925781 -1.945312 1.714844 -1.128906 C 2.507812 -0.289062 3.46875 0.121094 4.609375 0.121094 C 5.4375 0.121094 6.191406 -0.121094 6.898438 -0.601562 C 7.585938 -1.078125 8.074219 -1.703125 8.386719 -2.496094 Z M 8.386719 -2.496094 "/></g></g></g><g fill="#000000" fill-opacity="1"><g transform="translate(235.726328, 200.898035)"><g><path d="M 3.15625 -3.839844 C 4.210938 -3.589844 4.933594 -3.3125 5.316406 -3 C 5.578125 -2.785156 5.710938 -2.507812 5.710938 -2.171875 C 5.710938 -1.835938 5.640625 -1.558594 5.496094 -1.367188 C 5.136719 -0.863281 4.488281 -0.613281 3.574219 -0.613281 C 2.304688 -0.613281 1.585938 -1.042969 1.429688 -1.90625 L 0.445312 -1.90625 C 0.730469 -0.527344 1.777344 0.15625 3.574219 0.15625 C 4.378906 0.15625 5.050781 -0.0117188 5.59375 -0.371094 C 6.238281 -0.792969 6.574219 -1.414062 6.574219 -2.230469 C 6.574219 -2.902344 6.3125 -3.421875 5.785156 -3.78125 C 5.410156 -4.042969 4.8125 -4.285156 3.984375 -4.5 C 3.144531 -4.714844 2.605469 -4.894531 2.351562 -5.027344 C 1.800781 -5.304688 1.523438 -5.6875 1.535156 -6.191406 C 1.535156 -6.457031 1.585938 -6.683594 1.703125 -6.851562 C 2.015625 -7.320312 2.566406 -7.558594 3.359375 -7.558594 C 4.476562 -7.558594 5.113281 -7.199219 5.28125 -6.503906 L 6.191406 -6.503906 C 5.890625 -7.679688 4.945312 -8.28125 3.359375 -8.28125 C 2.640625 -8.28125 2.003906 -8.089844 1.476562 -7.703125 C 0.9375 -7.320312 0.660156 -6.757812 0.660156 -5.988281 C 0.660156 -4.945312 1.5 -4.222656 3.15625 -3.839844 Z M 3.15625 -3.839844 "/></g></g></g></svg>